<svg xmlns="http://www.w3.org/2000/svg" viewBox="0 0 504.3 504.3"><path d="M128 201h4.3c18.7 0 35.8 6 51.2 15.3 2.5-6.8 5-12.8 8.5-18.8 1.7-2.5 2.6-5 4.3-6.8 1.7-2.5 3.4-5.1 6-7.7 4.2-6 9.3-11 15.3-16.2 1.7-1.7 3.4-2.5 5.1-4.2 2.6-1.7 5.1-4.3 7.7-6 20.5-14.5 46-23 72.5-23 70.9 0 128 57.1 128 128 0 4.2 0 7.6-.8 11.9 40 11 69.1 47 69.1 90.4 0 52.1-41.8 94-93.9 94H64A59.4 59.4 0 014.3 398a60.4 60.4 0 0145.2-58 97.6 97.6 0 01-11.1-44.4 94.2 94.2 0 0136.7-74.3 98.8 98.8 0 0134.1-17c2.6-.9 5.1-.9 7.7-1.7 2.6-.9 6-.9 8.5-.9.9-.8 1.7-.8 2.6-.8" fill="#80d6fa"/><path d="M230.4 155.7c-2.6 1.7-5.1 4.3-7.7 6-1.7 1.7-3.4 2.6-5.1 4.3-5.1 5-11 10.2-15.4 16.2-1.7 2.5-4.2 5.1-6 7.7-1.6 2.5-3.3 4.2-4.2 6.8-3.4 6-6.8 12.8-9.4 18.8a95.1 95.1 0 00-51.2-15.4H123.7c-3.4 0-6 .9-8.5.9-2.6 0-5.1.8-7.7 1.7a97 97 0 00-34.1 16.2c-1.7-6-2.6-12.8-2.6-19.6 0-47 38.4-85.4 85.4-85.4a92.4 92.4 0 0174.2 41.8" fill="#ffe079"/><path d="M405.3 461.2H64c-35 0-64-29-64-64s29-64 64-64c2.6 0 4.3 1.7 4.3 4.3s-1.7 4.3-4.3 4.3a55.4 55.4 0 100 110.9h341.3A89.6 89.6 0 00495 363c0-29-14.5-56.3-37.5-73.4-1.7-1.7-2.6-4.3-.9-6 1.7-1.7 4.3-2.5 6-.8a98.4 98.4 0 0141.8 80.2 100 100 0 01-99 98.1zm-365.2-145c-1.7 0-3.4-1.7-4.3-3.5-.8-6-1.7-11.9-1.7-17.9a98.7 98.7 0 0198.2-98.1c27.3 0 52 11 70.8 30.7a4.1 4.1 0 010 6 4.1 4.1 0 01-6 0 89.1 89.1 0 00-64.8-28.2 89.6 89.6 0 00-88 105.8c0 2.6-1.6 4.3-4.2 5.2zM426.7 299h-.9c-2.5-.9-3.4-2.6-2.5-5.1 2.5-10.3 4.2-21.4 4.2-33.3a123.7 123.7 0 00-226.1-69.1c-1.7 1.7-4.3 2.5-6 .8-1.7-1.7-2.5-4.2-.8-6a132.6 132.6 0 01110-58.8A133 133 0 01437 259.8c0 12-1.7 24-5.1 35-1.7 3.4-3.4 4.3-5.1 4.3zM75 282h-.9c-2.5-1-3.4-3.5-2.5-5.2a66 66 0 0124.7-34.1c1.7-1.7 4.3-.9 6 .8 1.7 1.7.9 4.3-.9 6-10.2 6.8-17.9 18-21.3 29.9-1.7 1.7-3.4 2.5-5.1 2.5zM396.8 265c-2.6 0-4.3-1.7-4.3-4.3 0-17-5-34.1-14.5-48.6-1.7-1.8-.8-4.3.9-6 1.7-1.7 4.2-.9 6 .8a99.4 99.4 0 0116.2 53.8c0 2.6-1.7 4.3-4.3 4.3zM38.4 205.2H4.3c-2.6 0-4.3-1.7-4.3-4.2 0-2.6 1.7-4.3 4.3-4.3h34.1c2.6 0 4.3 1.7 4.3 4.3 0 2.5-1.7 4.2-4.3 4.2zm35.8-17h-.8c-2.6-.9-3.4-2.6-3.4-5.2a89.6 89.6 0 01141.6-53.7c1.7 1.7 2.6 4.2.9 6-1.7 1.7-4.3 2.5-6 .8A83.2 83.2 0 00158 120a81.3 81.3 0 00-79.4 64.8c-.8 1.8-2.6 3.5-4.3 3.5zm-26.4-29H46l-15.4-6.9c-2.5-.8-3.4-3.4-2.5-6 .8-2.5 3.4-3.4 6-2.5l15.3 6.8c2.6.9 3.4 3.4 2.6 6-1.8 1.7-2.6 2.5-4.3 2.5zm194.5-38.5c-.8 0-2.5 0-3.4-.8a4.1 4.1 0 010-6L263 90c1.6-1.7 4.2-1.7 5.9 0s1.7 4.3 0 6l-23.9 23.9c0 .8-1.7.8-2.6.8zm-169 0c-.8 0-2.5 0-3.3-.8L46 96c-1.6-1.7-1.6-4.3 0-6s4.3-1.7 6 0l24 24a4.1 4.1 0 010 5.9c0 .8-1.8.8-2.6.8zm38.5-25.6c-1.7 0-3.4-.8-4.3-2.5l-6.8-15.4c-.9-2.5 0-4.2 2.6-6 2.5-.8 4.2 0 6 2.6l6.8 15.4c.8 2.5 0 4.2-2.6 6h-1.7zm92.1 0h-1.7c-2.5-.8-3.4-3.4-2.5-6l6.8-15.3c.9-2.5 3.4-3.4 6-2.5 2.5.8 3.4 3.4 2.5 6l-6.8 15.3c-1.7.8-2.5 2.5-4.3 2.5zm-46-9.3c-2.6 0-4.3-1.7-4.3-4.3V47.4c0-2.6 1.7-4.3 4.3-4.3 2.5 0 4.2 1.7 4.2 4.3v34c0 2.7-1.7 4.4-4.2 4.4z" fill="#51565f"/></svg>