<svg xmlns="http://www.w3.org/2000/svg" viewBox="0 0 504.3 504.3"><path d="M430 230.4c39.3 11 69.2 47 69.2 90.5 0 52-41.8 93.8-93.9 93.8H64A59.4 59.4 0 014.3 355a60.4 60.4 0 0145.2-58 93.6 93.6 0 01134-122.9c17.9-48.7 64.8-83.6 119.4-83.6 70.9 0 128 57.1 128 128 0 4.2 0 7.6-.8 11.9" fill="#80d6fa"/><path d="M405.3 419H64c-35 0-64-29-64-64s29-64 64-64c2.6 0 4.3 1.7 4.3 4.3 0 2.5-1.7 4.2-4.3 4.2a55.4 55.4 0 100 111h341.3a89.6 89.6 0 0089.6-89.6c0-29-14.5-56.4-37.5-73.4-1.7-1.7-2.6-4.3-.9-6s4.3-2.6 6-.9a100.7 100.7 0 0141.8 80.3 100 100 0 01-99 98zM40.1 274c-1.7 0-3.4-1.8-4.3-3.5-.8-6-1.7-12-1.7-18a98.7 98.7 0 0198.2-98c27.3 0 52 11 70.8 30.7a4.1 4.1 0 010 6 4.1 4.1 0 01-6 0 89.1 89.1 0 00-64.8-28.2 89.6 89.6 0 00-88 105.8c0 2.6-1.6 4.3-4.2 5.1zm386.6-17.1h-.9c-2.5-.9-3.4-2.6-2.5-5.2 2.5-11 4.2-22.2 4.2-33.2a123.7 123.7 0 00-226.1-69.1c-1.7 1.6-4.3 2.5-6 .8-1.7-1.7-2.5-4.3-.8-6a132.6 132.6 0 01110-58.9A133 133 0 01437 217.6c0 12-1.7 23.9-5.1 35-1.7 3.4-3.4 4.3-5.1 4.3zM75 239.8h-.9c-2.5-.9-3.4-3.4-2.5-5.1a66 66 0 0124.7-34.2c1.7-1.7 4.3-.8 6 .9 1.7 1.7.9 4.3-.9 6-10.2 6.8-17.9 17.9-21.3 29.8-1.7 1.7-3.4 2.6-5.1 2.6zm321.7-17c-2.6 0-4.3-1.8-4.3-4.3 0-17.1-5-34.2-14.5-48.7-1.7-1.7-.8-4.3.9-6 1.7-1.7 4.2-.8 6 .9a99.4 99.4 0 0116.2 53.8c0 2.5-1.7 4.2-4.3 4.2z" fill="#51565f"/></svg>