<svg xmlns="http://www.w3.org/2000/svg" viewBox="0 0 503.8 503.8"><path fill="#ecf4f7" d="M379.9 380l-17 17.1 17 17 17 17.2 17.1-17.1 17-17-17-17.1-17-17.1z"/><path d="M345.8 339c-2.6 2.7-4.3 5.2-6.9 7a127.9 127.9 0 01-215-94c0-70.8 57.2-128 128-128a127.8 127.8 0 0193.9 215" fill="#ffe079"/><path d="M149.5 503.8h-1.7a4.7 4.7 0 01-2.6-4.3v-1.7l14.5-35c.9-2.5 3.4-3.4 6-2.5 1.7.8 2.6 2.5 2.6 4.2v1.7l-14.5 35a4.7 4.7 0 01-4.3 2.6zm247.5 0c-2.6 0-4.3-1.7-4.3-4.3v-12.8h-12.8c-2.6 0-4.3-1.7-4.3-4.2 0-2.6 1.7-4.3 4.3-4.3h12.8v-25.6h-4.3c-2.5 0-4.2-1.7-4.2-4.3 0-2.5 1.7-4.2 4.2-4.2h4.3V433l-12.8-12.8L350 450v15.4c0 2.5-1.7 4.3-4.2 4.3s-4.3-1.8-4.3-4.3v-12.8h-12.8c-2.6 0-4.3-1.7-4.3-4.3 0-2.5 1.7-4.2 4.3-4.2H344l29.8-30-12.8-12.7h-11v4.3c0 2.5-1.8 4.2-4.3 4.2s-4.3-1.7-4.3-4.2v-4.3h-25.6v12.8c0 2.5-1.7 4.3-4.3 4.3-2.5 0-4.2-1.8-4.2-4.3v-12.8h-12.8c-2.6 0-4.3-1.7-4.3-4.3 0-2.5 1.7-4.2 4.3-4.2h12.8V380c0-2.6 1.7-4.3 4.2-4.3 2.6 0 4.3 1.7 4.3 4.3v12.8h25.6v-4.3c0-2.6 1.7-4.3 4.3-4.3s4.2 1.7 4.2 4.3v4.3h11.1L374 380l-29.8-30h-15.4c-2.6 0-4.3-1.6-4.3-4.2s1.7-4.2 4.3-4.2h12.8v-12.8c0-2.6 1.7-4.3 4.3-4.3s4.2 1.7 4.2 4.3v15.3l29.9 29.9 12.8-12.8v-11.1h-4.3c-2.5 0-4.2-1.7-4.2-4.3s1.7-4.2 4.2-4.2h4.3V316h-12.8c-2.6 0-4.3-1.8-4.3-4.3 0-2.6 1.7-4.3 4.3-4.3h12.8v-12.8c0-2.5 1.7-4.3 4.3-4.3s4.2 1.8 4.2 4.3v12.8H414c2.6 0 4.3 1.7 4.3 4.3 0 2.5-1.7 4.3-4.3 4.3h-12.8v25.6h4.3c2.6 0 4.3 1.7 4.3 4.2s-1.7 4.3-4.3 4.3h-4.3v11l12.8 12.9 29.9-29.9V329c0-2.6 1.7-4.3 4.3-4.3s4.2 1.7 4.2 4.3v12.8h12.8c2.6 0 4.3 1.7 4.3 4.2s-1.7 4.3-4.3 4.3H450L420 380l12.8 12.8h11v-4.3c0-2.6 1.8-4.3 4.4-4.3s4.2 1.7 4.2 4.3v4.3H478V380c0-2.6 1.7-4.3 4.3-4.3s4.3 1.7 4.3 4.3v12.8h12.8c2.5 0 4.2 1.7 4.2 4.2 0 2.6-1.7 4.3-4.2 4.3h-12.8v12.8c0 2.5-1.7 4.3-4.3 4.3s-4.3-1.8-4.3-4.3v-12.8h-25.6v4.3c0 2.5-1.7 4.2-4.2 4.2s-4.3-1.7-4.3-4.2v-4.3h-11.1L420 414.2l29.9 29.9h15.3c2.6 0 4.3 1.7 4.3 4.2 0 2.6-1.7 4.3-4.3 4.3h-12.8v12.8c0 2.5-1.7 4.3-4.2 4.3s-4.3-1.8-4.3-4.3V450L414 420.2 401.2 433v11h4.3c2.6 0 4.3 1.8 4.3 4.3 0 2.6-1.7 4.3-4.3 4.3h-4.3v25.6H414c2.6 0 4.3 1.7 4.3 4.3 0 2.5-1.7 4.2-4.3 4.2h-12.8v12.8c0 2.6-1.7 4.3-4.2 4.3zm-13.7-93l13.7 13.6 28.1-28.1L397 368l-28.2 28.2 14.5 14.5zm-131.4 76c-2.6 0-4.3-1.8-4.3-4.3v-68.3c0-2.6 1.7-4.3 4.3-4.3s4.3 1.7 4.3 4.3v68.3c0 2.5-1.7 4.2-4.3 4.2zm-75.1-49.6h-1.7a4.7 4.7 0 01-2.6-4.2v-1.7l12.8-31.6c.9-2.6 3.4-3.4 6-2.6 1.7.9 2.6 2.6 2.6 4.3v1.7L181 434.7a4.7 4.7 0 01-4.3 2.5zm-84.5-17c-.8 0-2.5 0-3.4-.9s-.8-1.7-.8-3.4 0-2.6.8-3.4l48.6-48.7a4.1 4.1 0 016 0c.9.9.9 1.7.9 3.5s0 2.5-.9 3.4L95 419.3c-.9.9-1.7.9-2.6.9zM252 384.3c-72.5 0-132.3-59.7-132.3-132.2S179.4 119.8 252 119.8 384.2 179.5 384.2 252c0 6 0 11.9-.9 17.9 0 2.5-2.6 4.2-5.1 3.4-2.6 0-4.3-2.6-3.4-5.1.8-5.2.8-11.1.8-17.1A123.8 123.8 0 10252 374.9c5.1 0 11 0 16.2-.8 2.6 0 4.3 1.7 5.1 3.4 0 2.6-1.7 4.3-3.4 5.1-6 1.7-12 1.7-18 1.7zM4.4 358.7c-1.7 0-3.4-.8-4.2-2.5v-1.7c0-1.8.8-3.5 2.5-4.3l35-14.5c2.6-.9 4.3 0 6 2.5v1.7c0 1.8-.9 3.5-2.6 4.3l-35 14.5H4.4zM71 331.4c-1.7 0-3.4-.8-4.3-2.5V327c0-1.7.9-3.4 2.6-4.2l31.6-12.8c2.5-.9 4.2 0 6 2.5v1.7c0 1.8-1 3.5-2.6 4.3l-31.6 12.8H71zm411.3-75H414c-2.5 0-4.2-1.8-4.2-4.3 0-2.6 1.7-4.3 4.2-4.3h68.3c2.6 0 4.3 1.7 4.3 4.3 0 2.5-1.7 4.2-4.3 4.2zm-392.5 0H21.5c-2.6 0-4.3-1.8-4.3-4.3 0-2.6 1.7-4.3 4.3-4.3h68.3c2.5 0 4.2 1.7 4.2 4.3 0 2.5-1.7 4.2-4.2 4.2zm245.7-42.7c-1.7 0-3.4-.9-3.4-2.6-6.8-13.7-18-25.6-30.7-35-1.7-1.7-2.6-4.3-.9-6 1.7-1.7 4.3-2.5 6-.8a96.3 96.3 0 0134.1 37.5c.9 1.7 0 4.3-1.7 6-1.7.9-2.5.9-3.4.9zm66.6-19.7c-1.7 0-3.4-.8-4.3-2.5v-1.7c0-1.7.9-3.5 2.6-4.3l31.5-12.8c2.6-.9 4.3 0 6 2.6v1.7c0 1.7-.8 3.4-2.5 4.2L403.8 194H402zm-300.4 0H100l-31.6-12.8A4.7 4.7 0 0166 177v-1.7c.8-2.6 3.4-3.5 6-2.6l31.5 12.8c1.7.8 2.6 2.6 2.6 4.3v1.7a4.7 4.7 0 01-4.3 2.5zm362.7-25.6c-1.7 0-3.4-.8-4.3-2.5v-1.7c0-1.7.9-3.5 2.6-4.3l35-14.5c2.5-.9 4.2 0 6 2.5v1.8c0 1.7-1 3.4-2.6 4.2l-35 14.5h-1.7zm-425 0h-1.7L2.7 154a4.7 4.7 0 01-2.5-4.2v-1.8c.8-2.5 3.4-3.4 6-2.5l35 14.5c1.6.8 2.5 2.6 2.5 4.3v1.7c-1.7 1.7-2.6 2.5-4.3 2.5zm330.3-25.6c-.9 0-2.6 0-3.5-.8-.8-.9-.8-1.7-.8-3.4s0-2.6.8-3.5L409 93.3a4.1 4.1 0 016 0c.8.9.8 1.7.8 3.4 0 1.8 0 2.6-.8 3.5L372.2 142c-.8.8-1.7.8-2.5.8zm-229.6 0c-.8 0-2.6 0-3.4-.8L88 93.3c-.9-.8-.9-1.7-.9-3.4s0-2.5.9-3.4a4.1 4.1 0 016 0l48.6 48.6c.8.9.8 1.8.8 3.5s0 2.5-.8 3.4c-.9.8-1.7.8-2.6.8zm174-36.7h-1.6a4.7 4.7 0 01-2.6-4.2v-1.7l12.8-31.6c.9-2.6 3.4-3.4 6-2.6 1.7.9 2.6 2.6 2.6 4.3V72l-12.8 31.6a4.7 4.7 0 01-4.3 2.5zm-124.5 0c-1.7 0-3.4-.8-4.3-2.5L172.5 72v-1.7c0-1.7.9-3.4 2.6-4.3 2.6-.8 4.3 0 6 2.6l12.8 31.6v1.7c0 1.7-.9 3.4-2.6 4.2h-1.7zm62.3-12c-2.6 0-4.3-1.6-4.3-4.2V30.2c0-2.6 1.7-4.3 4.3-4.3s4.3 1.7 4.3 4.3v59.7c0 2.6-1.7 4.3-4.3 4.3zM164 43.9c-1.7 0-3.4-.8-4.3-2.5l-14.5-35V4.6c0-1.7.9-3.4 2.6-4.3 2.5-.8 4.3 0 6 2.6l14.5 35v1.7c0 1.7-.9 3.4-2.6 4.2-.8-.8-1.7 0-1.7 0zm175.8 0H338a4.7 4.7 0 01-2.6-4.2v-1.7l14.5-35c.9-2.6 3.4-3.4 6-2.6 1.7.9 2.6 2.6 2.6 4.3v1.7l-14.5 35c-.9.8-2.6 2.5-4.3 2.5z" fill="#51565f"/></svg>