<svg xmlns="http://www.w3.org/2000/svg" viewBox="0 0 503.5 503.5"><path d="M192 72.5c-51.2 0-102.4 12.8-102.4 51.2s-68.3 59.8-68.3 102.4 81.1 81.1 81.1 102.4S64 341.3 64 379.7s59.7 51.2 85.3 51.2h196.3c34.1 0 59.7-21.3 59.7-51.2s-34.1-29.8-34.1-51.2S486.4 286 486.4 226.1c0-68.2-76.8-153.6-140.8-153.6H192z" fill="#ecf4f7"/><path d="M362.7 435.2H140.8c-2.6 0-4.3-1.7-4.3-4.3 0-2.5 1.7-4.2 4.3-4.2h221.9c2.5 0 4.2 1.7 4.2 4.2 0 2.6-1.7 4.3-4.2 4.3zm51.2-51.2H243.2c-2.6 0-4.3-1.7-4.3-4.3 0-2.5 1.7-4.2 4.3-4.2h170.7c2.5 0 4.2 1.7 4.2 4.2 0 2.6-1.7 4.3-4.2 4.3zM209 384H55.5c-2.6 0-4.3-1.7-4.3-4.3 0-2.5 1.7-4.2 4.3-4.2H209c2.5 0 4.2 1.7 4.2 4.2 0 2.6-1.7 4.3-4.2 4.3zm170.6-51.2H192c-2.6 0-4.3-1.7-4.3-4.3 0-2.5 1.7-4.2 4.3-4.2h187.7c2.6 0 4.3 1.7 4.3 4.2 0 2.6-1.7 4.3-4.3 4.3zm-221.8 0H89.6c-2.6 0-4.3-1.7-4.3-4.3 0-2.5 1.7-4.2 4.3-4.2h68.3c2.5 0 4.2 1.7 4.2 4.2 0 2.6-1.7 4.3-4.2 4.3zM465 281.6H277.3c-2.5 0-4.2-1.7-4.2-4.3s1.7-4.2 4.2-4.2h187.8c2.5 0 4.2 1.7 4.2 4.2s-1.7 4.3-4.2 4.3zm-221.9 0H55.5c-2.6 0-4.3-1.7-4.3-4.3s1.7-4.2 4.3-4.2h187.7c2.6 0 4.3 1.7 4.3 4.2s-1.7 4.3-4.3 4.3zm256-51.2H140.8c-2.6 0-4.3-1.7-4.3-4.3s1.7-4.2 4.3-4.2h358.4c2.6 0 4.3 1.7 4.3 4.2s-1.7 4.3-4.3 4.3zm-392.5 0H4.3c-2.6 0-4.3-1.7-4.3-4.3s1.7-4.2 4.3-4.2h102.4c2.5 0 4.2 1.7 4.2 4.2s-1.7 4.3-4.2 4.3zm307.2-51.2h-68.3c-2.6 0-4.3-1.7-4.3-4.3 0-2.5 1.7-4.2 4.3-4.2h68.3c2.5 0 4.2 1.7 4.2 4.2 0 2.6-1.7 4.3-4.2 4.3zm-102.4 0H38.4c-2.6 0-4.3-1.7-4.3-4.3 0-2.5 1.7-4.2 4.3-4.2h273c2.6 0 4.3 1.7 4.3 4.2 0 2.6-1.7 4.3-4.2 4.3zM430.9 128H243.2c-2.6 0-4.3-1.7-4.3-4.3 0-2.5 1.7-4.2 4.3-4.2h187.7c2.6 0 4.3 1.7 4.3 4.2 0 2.6-1.7 4.3-4.3 4.3zm-221.8 0H89.6c-2.6 0-4.3-1.7-4.3-4.3 0-2.5 1.7-4.2 4.3-4.2h119.5c2.5 0 4.2 1.7 4.2 4.2 0 2.6-1.7 4.3-4.2 4.3zm187.7-51.2H174.9c-2.5 0-4.2-1.7-4.2-4.3 0-2.5 1.7-4.2 4.2-4.2h221.9c2.6 0 4.3 1.7 4.3 4.2 0 2.6-1.7 4.3-4.3 4.3z" fill="#51565f"/></svg>