<svg xmlns="http://www.w3.org/2000/svg" viewBox="0 0 504.1 504.1"><path d="M380 252.2a128 128 0 01-41 93.9H166c-25.6-23-41-56.3-41-93.9 0-70.8 57.2-128 128-128s127.2 57.2 127.2 128" fill="#ffe079"/><path d="M414.2 504H243.5c-2.5 0-4.2-1.8-4.2-4.3 0-2.6 1.7-4.3 4.2-4.3h170.7c2.5 0 4.3 1.7 4.3 4.3 0 2.5-1.8 4.2-4.3 4.2zm-204.8 0H55.8c-2.6 0-4.3-1.8-4.3-4.3 0-2.6 1.7-4.3 4.3-4.3h153.6c2.5 0 4.3 1.7 4.3 4.3 0 2.5-1.8 4.2-4.3 4.2zM380 452.6H192.3c-2.5 0-4.2-1.7-4.2-4.2 0-2.6 1.7-4.3 4.2-4.3h187.8c2.5 0 4.2 1.7 4.2 4.3 0 2.5-1.7 4.2-4.2 4.2zm-222 0H90c-2.5 0-4.2-1.7-4.2-4.2 0-2.6 1.7-4.3 4.2-4.3h68.3c2.5 0 4.3 1.7 4.3 4.3 0 2.5-1.8 4.2-4.3 4.2zm307.3-51.2H277.7c-2.6 0-4.3-1.7-4.3-4.2s1.7-4.3 4.3-4.3h187.7c2.5 0 4.3 1.7 4.3 4.3s-1.8 4.2-4.3 4.2zm-221.9 0H55.8c-2.6 0-4.3-1.7-4.3-4.2s1.7-4.3 4.3-4.3h187.7c2.6 0 4.3 1.7 4.3 4.3s-1.7 4.2-4.3 4.2zm256-51.2H141.1c-2.5 0-4.2-1.7-4.2-4.2s1.7-4.3 4.2-4.3h358.4c2.6 0 4.3 1.7 4.3 4.3s-1.7 4.2-4.3 4.2zm-392.5 0H4.6c-2.6 0-4.3-1.7-4.3-4.2s1.7-4.3 4.3-4.3H107c2.5 0 4.3 1.7 4.3 4.3s-1.8 4.2-4.3 4.2zm32.4-33.2c-1.7 0-3.4-.9-3.4-2.6A133 133 0 01253 120a133 133 0 01132.2 132.3c0 21.3-5.1 42.7-15.4 61.5-.8 1.7-3.4 2.5-6 1.7-1.7-.9-2.5-3.5-1.7-6a123.8 123.8 0 10-233-58c0 20.4 5.2 40 14.6 58 .8 1.7 0 4.3-1.7 6-1.7.8-2.6 1.7-2.6 1.7zm343-60.6h-68.2c-2.6 0-4.3-1.7-4.3-4.3s1.7-4.3 4.3-4.3h68.3c2.5 0 4.2 1.8 4.2 4.3s-1.7 4.3-4.2 4.3zm-392.5 0H21.7c-2.6 0-4.3-1.7-4.3-4.3s1.7-4.3 4.3-4.3h68.2c2.6 0 4.3 1.8 4.3 4.3s-1.7 4.3-4.3 4.3zm245.8-42.7c-1.7 0-3.4-.8-3.4-2.5-6.9-13.7-18-25.6-30.8-35-1.7-1.7-2.5-4.3-.8-6 1.7-1.7 4.3-2.6 6-.9a96.3 96.3 0 0134.1 37.6c.9 1.7 0 4.3-1.7 6-1.7.8-2.6.8-3.4.8zm66.5-19.6c-1.7 0-3.4-.9-4.2-2.6-.9-2.5 0-4.2 2.5-6l31.6-12.7c2.6-.9 4.3 0 6 2.5.8 2.6 0 4.3-2.6 6L404 194.2h-1.7zm-300.3 0h-1.7l-31.6-12.8c-2.6-.9-3.4-3.4-2.6-6 .9-2.5 3.4-3.4 6-2.5l31.6 12.8c2.5.8 3.4 3.4 2.5 6a4.7 4.7 0 01-4.2 2.5zm362.6-25.6c-1.7 0-3.4-.9-4.2-2.6-.9-2.5 0-4.2 2.5-6l35-14.5c2.6-.8 4.3 0 6 2.6.8 2.6 0 4.3-2.6 6l-35 14.5h-1.7zm-425 0H38L2.9 154c-2.6-.9-3.4-3.4-2.6-6 .9-2.6 3.4-3.4 6-2.6l35 14.6c2.5.8 3.4 3.4 2.5 6-1.7 1.6-2.5 2.5-4.2 2.5zM369.9 143c-.8 0-2.5 0-3.4-.9a4.1 4.1 0 010-6l42.7-41.8a4.1 4.1 0 016 0 4.1 4.1 0 010 6l-42.7 41.8c-.9.9-1.7.9-2.6.9zm-229.5 0c-.9 0-2.6 0-3.4-.9L88.2 93.5c-1.7-1.7-1.7-4.3 0-6s4.3-1.7 6 0l48.6 48.7a4.1 4.1 0 010 6c0 .8-1.7.8-2.5.8zm174-36.7h-1.7c-2.5-.9-3.4-3.4-2.5-6l12.8-31.6c.8-2.5 3.4-3.4 6-2.5s3.4 3.4 2.5 6l-12.8 31.5a4.7 4.7 0 01-4.3 2.6zm-124.5 0c-1.7 0-3.5-.9-4.3-2.6l-12.8-31.5c-.9-2.6 0-4.3 2.6-6 2.5-.9 4.2 0 6 2.5l12.7 31.6c.9 2.6 0 4.3-2.5 6h-1.7zm62.3-12c-2.6 0-4.3-1.7-4.3-4.2V30.3c0-2.5 1.7-4.2 4.3-4.2s4.2 1.7 4.2 4.2v59.8c0 2.5-1.7 4.2-4.2 4.2zM164 44c-1.6 0-3.4-.9-4.2-2.6l-14.5-35c-.9-2.5 0-4.2 2.5-6 2.6-.8 4.3 0 6 2.6l14.5 35c.9 2.6 0 4.3-2.5 6-.9-.9-1.7 0-1.7 0zM340 44h-1.7c-2.5-.9-3.4-3.4-2.5-6l14.5-35c.8-2.5 3.4-3.4 6-2.5s3.4 3.4 2.5 6l-14.5 35c-.8.8-2.5 2.5-4.3 2.5z" fill="#51565f"/></svg>