<svg xmlns="http://www.w3.org/2000/svg" viewBox="0 0 504.3 504.3"><path d="M274.8 420.7h-2.6c-12 1.7-23.9 2.6-37.5 2.6-59.8 0-111-17.1-111-17.1 0-34.1-34.1-34.1-34.1-34.1H64a59.4 59.4 0 01-59.7-59.8 60.4 60.4 0 0145.2-58 93.6 93.6 0 01134-122.9c17.9-48.6 64.8-83.6 119.4-83.6 70.9 0 128 57.2 128 128 0 4.3 0 7.7-.8 12 39.2 11 69.1 46.9 69.1 90.4 0 52-41.8 93.9-93.9 93.9h-25.6s-34.1 0-34.1 34c0 0-29.9 10.3-70.8 14.6" fill="#ecf4f7"/><path d="M253.4 461.7c-.8 0-1.7 0-1.7-.9-1.7-.9-2.5-3.4-1.7-6l15.4-28.1h-30.7c-2.6 0-4.3-1.7-4.3-4.3 0-2.6 1.7-4.3 4.3-4.3h30.7L250 390a4.5 4.5 0 011.7-6c1.7-.9 4.3 0 6 1.7l15.4 27.3 15.3-27.3c.9-1.7 3.4-2.6 6-1.7 1.7.9 2.6 3.4 1.7 6L280.7 418h30.8c2.5 0 4.2 1.7 4.2 4.3 0 2.6-1.7 4.3-4.2 4.3h-30.8l15.4 28.1c.9 1.7 0 4.3-1.7 6-1.7.9-4.3 0-6-1.7l-15.3-27.3-15.4 27.3a4.7 4.7 0 01-4.3 2.6zm-129.7-34.2c-2.5 0-4.2-1.7-4.2-4.2v-17.1c0-29-29-29.9-29.9-29.9H64c-35 0-64-29-64-64s29-64 64-64c2.6 0 4.3 1.7 4.3 4.3 0 2.5-1.7 4.3-4.3 4.3a55.4 55.4 0 100 110.9h25.6c13.7 0 38.4 7.7 38.4 38.4v17c0 2.6-1.7 4.3-4.3 4.3zm221.9-17c-2.6 0-4.3-1.8-4.3-4.3 0-30.7 24.8-38.4 38.4-38.4h25.6a89.6 89.6 0 0089.6-89.6c0-29-14.5-56.3-37.5-73.4-1.7-1.7-2.6-4.3-.9-6s4.3-2.5 6-.8a98.4 98.4 0 0141.8 80.2 98.7 98.7 0 01-98.1 98.1h-25.6c-.9 0-29.9.9-29.9 29.9-.8 2.5-2.5 4.3-5.1 4.3zm-177.5-17.1c-.8 0-1.7 0-1.7-.9-1.7-.8-2.6-3.4-1.7-6l15.4-28.1h-30.8c-2.5 0-4.2-1.7-4.2-4.3 0-2.5 1.7-4.2 4.2-4.2h30.8l-15.4-28.2a4.5 4.5 0 011.7-6c1.7-.8 4.3 0 6 1.7l15.3 27.3 15.4-27.3c.8-1.7 3.4-2.5 6-1.7 1.7.9 2.5 3.4 1.7 6L195.4 350h30.7c2.6 0 4.3 1.7 4.3 4.2 0 2.6-1.7 4.3-4.3 4.3h-30.7l15.4 28.2c.8 1.7.8 4.2-1.7 6-1.7.8-4.3.8-6-1.8l-15.4-27.3-15.3 27.3a4.7 4.7 0 01-4.3 2.6zm-128-162.1c-1.7 0-3.4-1.8-4.3-3.5-.8-6-1.7-12-1.7-17.9a98.7 98.7 0 0198.2-98.1c27.3 0 52 11 70.8 30.7a4.1 4.1 0 010 6 4.1 4.1 0 01-6 0 89.1 89.1 0 00-64.8-28.2 89.6 89.6 0 00-88 105.8c0 2.6-1.6 4.3-4.2 5.2zm386.6-17.1h-.9c-2.5-.9-3.4-2.6-2.5-5.1 2.5-10.3 4.2-21.4 4.2-33.3a123.7 123.7 0 00-226.1-69.1c-1.7 1.7-4.3 2.5-6 .8-1.7-1.7-2.5-4.2-.8-6a132.6 132.6 0 01110-58.8A133 133 0 01437 174.9c0 12-1.7 24-5.1 35-1.7 3.4-3.4 4.3-5.1 4.3zM75 197.2h-.9c-2.5-1-3.4-3.5-2.5-5.2a66 66 0 0124.7-34.1c1.7-1.7 4.3-.9 6 .8 1.7 1.7.9 4.3-.9 6-10.2 6.8-17.9 18-21.3 29.9-1.7 1.7-3.4 2.5-5.1 2.5zM396.8 180c-2.6 0-4.3-1.8-4.3-4.3 0-17-5-34.1-14.5-48.7-1.7-1.7-.8-4.2.9-6 1.7-1.6 4.2-.8 6 1a99.4 99.4 0 0116.2 53.7c0 2.5-1.7 4.3-4.3 4.3z" fill="#51565f"/></svg>