<svg xmlns="http://www.w3.org/2000/svg" viewBox="0 0 504.3 504.3"><path d="M274.8 463h-2.6c-12 1.6-23.9 2.5-37.5 2.5-59.8 0-111-17-111-17 0-34.2-34.1-34.2-34.1-34.2H64a59.4 59.4 0 01-59.7-59.7 60.4 60.4 0 0145.2-58 93.6 93.6 0 01134-122.9C201.4 125 248.3 90 302.9 90c70.9 0 128 57.2 128 128 0 4.3 0 7.7-.8 12 39.2 11 69.1 47 69.1 90.4 0 52-41.8 93.9-93.9 93.9h-25.6s-34.1 0-34.1 34.1c0 0-29.9 10.3-70.8 14.5" fill="#ecf4f7"/><path d="M230.4 113c-2.6 1.8-5.1 4.3-7.7 6-1.7 1.7-3.4 2.6-5.1 4.3-5.1 5.1-11 10.2-15.4 16.2-1.7 2.6-4.2 5.1-6 7.7s-3.3 4.3-4.2 6.8c-3.4 6-6.8 12.8-9.4 18.8a95.1 95.1 0 00-51.2-15.4H123.7c-3.4 0-6 .9-8.5.9-2.6 0-5.1.8-7.7 1.7a97 97 0 00-34.1 16.2c-1.7-6-2.6-12.8-2.6-19.6 0-47 38.4-85.3 85.4-85.3a92.4 92.4 0 0174.2 41.8" fill="#ffe079"/><path d="M253.4 503.9c-.8 0-1.7 0-1.7-.9-1.7-.8-2.5-3.4-1.7-6l15.4-28h-30.7c-2.6 0-4.3-1.8-4.3-4.4 0-2.5 1.7-4.2 4.3-4.2h30.7L250 432.2a4.5 4.5 0 011.7-6c1.7-.8 4.3 0 6 1.7l15.4 27.4 15.3-27.4c.9-1.7 3.4-2.5 6-1.7 1.7.9 2.6 3.5 1.7 6l-15.4 28.2h30.8c2.5 0 4.2 1.7 4.2 4.2 0 2.6-1.7 4.3-4.2 4.3h-30.8l15.4 28.2c.9 1.7 0 4.2-1.7 6-1.7.8-4.3.8-6-1.8L273.1 474l-15.4 27.3a4.7 4.7 0 01-4.3 2.6zm-129.7-34.1c-2.5 0-4.2-1.7-4.2-4.3v-17c0-29-29-30-29.9-30H64c-35 0-64-29-64-64s29-64 64-64c2.6 0 4.3 1.8 4.3 4.3 0 2.6-1.7 4.3-4.3 4.3a55.4 55.4 0 100 111h25.6c13.7 0 38.4 7.6 38.4 38.3v17c0 2.7-1.7 4.4-4.3 4.4zm221.9-17.1c-2.6 0-4.3-1.7-4.3-4.3 0-30.7 24.8-38.4 38.4-38.4h25.6a89.6 89.6 0 0089.6-89.6c0-29-14.5-56.3-37.5-73.4-1.7-1.7-2.6-4.2-.9-6s4.3-2.5 6-.8a98.4 98.4 0 0141.8 80.2 98.7 98.7 0 01-98.1 98.2h-25.6c-.9 0-29.9.8-29.9 29.8-.8 2.6-2.5 4.3-5.1 4.3zm-177.5-17c-.8 0-1.7 0-1.7-1-1.7-.8-2.6-3.3-1.7-5.9l15.4-28.2h-30.8c-2.5 0-4.2-1.7-4.2-4.2s1.7-4.3 4.2-4.3h30.8L164.7 364a4.5 4.5 0 011.7-6c1.7-.8 4.3-.8 6 1.8l15.3 27.3 15.4-27.3c.8-1.7 3.4-2.6 6-1.7 1.7.8 2.5 3.4 1.7 6L195.4 392h30.7c2.6 0 4.3 1.7 4.3 4.3s-1.7 4.2-4.3 4.2h-30.7l15.4 28.2c.8 1.7.8 4.3-1.7 6-1.7.8-4.3 0-6-1.7l-15.4-27.3-15.3 27.3a4.7 4.7 0 01-4.3 2.5zm-128-162.2c-1.7 0-3.4-1.7-4.3-3.4-.8-6-1.7-12-1.7-18a98.7 98.7 0 0198.2-98c27.3 0 52 11 70.8 30.6a4.1 4.1 0 010 6 4.1 4.1 0 01-6 0 89.1 89.1 0 00-64.8-28.1 89.6 89.6 0 00-88 105.8c0 2.5-1.6 5-4.2 5zm386.6-17h-.9c-2.5-1-3.4-2.6-2.5-5.2 2.5-10.2 4.2-21.3 4.2-33.3A123.7 123.7 0 00201.4 149c-1.7 1.7-4.3 2.6-6 .9-1.7-1.7-2.5-4.3-.8-6a132.6 132.6 0 01110-58.9A133 133 0 01437 217.2c0 12-1.7 23.9-5.1 35-1.7 3.4-3.4 4.2-5.1 4.2zM75 239.3h-.9c-2.5-.9-3.4-3.5-2.5-5.2a66 66 0 0124.7-34c1.7-1.8 4.3-1 6 .8 1.7 1.7.9 4.2-.9 6-10.2 6.8-17.9 17.9-21.3 29.8-1.7 1.7-3.4 2.6-5.1 2.6zm321.7-17.1c-2.6 0-4.3-1.7-4.3-4.3 0-17-5-34.1-14.5-48.6-1.7-1.7-.8-4.3.9-6 1.7-.8 4.2-.8 6 .9A99.4 99.4 0 01401 218c0 2.6-1.7 4.3-4.3 4.3zM38.4 162.6H4.3c-2.6 0-4.3-1.7-4.3-4.3s1.7-4.3 4.3-4.3h34.1c2.6 0 4.3 1.7 4.3 4.3s-1.7 4.3-4.3 4.3zm35.8-17.1h-.8c-2.6-.9-3.4-2.6-3.4-5.1a89.6 89.6 0 01141.6-53.8c1.7 1.7 2.6 4.3.9 6-1.7 1.7-4.3 2.5-6 .8A83.2 83.2 0 00158 77.2a81.3 81.3 0 00-79.4 64.9c-.8 1.7-2.6 3.4-4.3 3.4zm-26.4-29H46l-15.4-6.8c-2.5-.9-3.4-3.5-2.5-6 .8-2.6 3.4-3.4 6-2.6l15.3 6.8c2.6.9 3.4 3.5 2.6 6-1.8 1.7-2.6 2.6-4.3 2.6zM242.3 78c-.8 0-2.5 0-3.4-.9a4.1 4.1 0 010-6l24-23.8c1.6-1.7 4.2-1.7 5.9 0s1.7 4.2 0 6l-23.9 23.8c0 .9-1.7.9-2.6.9zm-169 0c-.8 0-2.5 0-3.3-.9L46 53.3c-1.6-1.7-1.6-4.2 0-6s4.3-1.6 6 0l24 24a4.1 4.1 0 010 6c0 .8-1.8.8-2.6.8zm38.5-25.6c-1.7 0-3.4-.9-4.3-2.6l-6.8-15.3c-.9-2.6 0-4.3 2.6-6 2.5-.9 4.2 0 6 2.5l6.8 15.4c.8 2.6 0 4.3-2.6 6h-1.7zm92.1 0h-1.7c-2.5-.9-3.4-3.4-2.5-6l6.8-15.4c.9-2.5 3.4-3.4 6-2.5 2.5.8 3.4 3.4 2.5 6l-6.8 15.3c-1.7.9-2.5 2.6-4.3 2.6zM158 43c-2.6 0-4.3-1.7-4.3-4.3V4.7c0-2.6 1.7-4.3 4.3-4.3 2.5 0 4.2 1.7 4.2 4.3v34.1c0 2.6-1.7 4.3-4.2 4.3z" fill="#51565f"/></svg>