<svg xmlns="http://www.w3.org/2000/svg" viewBox="0 0 504.3 504.3"><path d="M128 158.3h4.3c18.7 0 35.8 6 51.2 15.4 2.5-6.9 5-12.8 8.5-18.8 1.7-2.6 2.6-5.1 4.3-6.8 1.7-2.6 3.4-5.2 6-7.7 4.2-6 9.3-11.1 15.3-16.2 1.7-1.7 3.4-2.6 5.1-4.3 2.6-1.7 5.1-4.3 7.7-6 20.5-14.5 46-23 72.5-23 70.9 0 128 57.2 128 128 0 4.2 0 7.7-.8 12 40 11 69.1 46.9 69.1 90.4 0 52-41.8 93.8-93.9 93.8H64a59.4 59.4 0 01-59.7-59.7 60.4 60.4 0 0145.2-58A97.6 97.6 0 0138.4 253a94.2 94.2 0 0136.7-74.2 98.8 98.8 0 0134.1-17c2.6-1 5.1-1 7.7-1.8 2.6-.9 6-.9 8.5-.9.9-.8 1.7-.8 2.6-.8" fill="#aab1ba"/><path d="M230.4 113c-2.6 1.8-5.1 4.3-7.7 6-1.7 1.7-3.4 2.6-5.1 4.3-5.1 5.1-11 10.2-15.4 16.2-1.7 2.6-4.2 5.1-6 7.7s-3.3 4.3-4.2 6.8c-3.4 6-6.8 12.8-9.4 18.8a95.1 95.1 0 00-51.2-15.4H123.7c-3.4 0-6 .9-8.5.9-2.6 0-5.1.8-7.7 1.7a97 97 0 00-34.1 16.2c-1.7-6-2.6-12.8-2.6-19.6 0-47 38.4-85.3 85.4-85.3a92.4 92.4 0 0174.2 41.8" fill="#ffe079"/><path d="M192 503.9h-1.7c-2.6-.9-3.4-3.4-2.6-6l48.7-113.5h-61.5c-1.7 0-2.5-.8-3.4-1.7-.8-.8-.8-2.5 0-4.2L222.7 259c.9-2.6 3.4-3.4 6-2.6 2.6.9 3.4 3.4 2.6 6l-48.7 113.5h61.5c1.7 0 2.5.8 3.4 1.7.8.9.8 2.6 0 4.3l-51.2 119.4a4.7 4.7 0 01-4.3 2.6zm93.9-17c-.9 0-1.7 0-2.6-1-1.7-.8-2.6-4.2-1.7-5.9l38.4-61.4h-43.5c-1.7 0-2.6-.9-3.4-1.7-.9-.9-.9-2.6-.9-4.3l25.6-68.3c.9-2.5 3.4-3.4 5.1-2.5 2.6.8 3.4 3.4 2.6 5l-23 62.4h45.2c1.7 0 2.5.8 3.4 2.5.8 1.7.8 3.4 0 4.3l-42.7 68.3c0 1.7-.8 2.5-2.5 2.5zm119.4-68.3h-42.6c-2.6 0-4.3-1.7-4.3-4.3 0-2.6 1.7-4.3 4.3-4.3h42.6a89.6 89.6 0 0089.6-89.6c0-29-14.5-56.3-37.5-73.4-1.7-1.7-2.6-4.2-.9-6s4.3-2.5 6-.8a100.7 100.7 0 0141.8 80.2 100 100 0 01-99 98.2zm-213.3 0H64c-35 0-64-29-64-64s29-64 64-64c2.6 0 4.3 1.7 4.3 4.2 0 2.6-1.7 4.3-4.3 4.3a55.4 55.4 0 100 111h128c2.6 0 4.3 1.6 4.3 4.2s-1.7 4.3-4.3 4.3zM40.1 273.5c-1.7 0-3.4-1.7-4.3-3.4-.8-6-1.7-12-1.7-18a98.7 98.7 0 0198.2-98c27.3 0 52 11 70.8 30.6a4.1 4.1 0 010 6 4.1 4.1 0 01-6 0 89.1 89.1 0 00-64.8-28.1 89.6 89.6 0 00-88 105.8c0 2.5-1.6 4.2-4.2 5zm386.6-17h-.9c-2.5-1-3.4-2.6-2.5-5.2 2.5-11 4.2-22.2 4.2-33.3A123.7 123.7 0 00201.4 149c-1.7 1.7-4.3 2.6-6 .9-1.7-1.7-2.5-4.3-.8-6a132.6 132.6 0 01110-58.9A133 133 0 01437 217.2c0 12-1.7 23.9-5.1 35-1.7 3.4-3.4 4.2-5.1 4.2zM75 239.3h-.9c-2.5-.9-3.4-3.5-2.5-5.2a66 66 0 0124.7-34c1.7-1.8 4.3-1 6 .8 1.7 1.7.9 4.2-.9 6-10.2 6.8-17.9 17.9-21.3 29.8-1.7 1.7-3.4 2.6-5.1 2.6zm321.7-17.1c-2.6 0-4.3-1.7-4.3-4.3 0-17-5-34.1-14.5-48.6-1.7-1.7-.8-4.3.9-6 1.7-1.7 4.2-.8 6 .9A99.4 99.4 0 01401 218c0 2.6-1.7 4.3-4.3 4.3zM38.4 162.6H4.3c-2.6 0-4.3-1.7-4.3-4.3s1.7-4.3 4.3-4.3h34.1c2.6 0 4.3 1.7 4.3 4.3s-1.7 4.3-4.3 4.3zm35.8-17.1h-.8c-2.6-.9-3.4-2.6-3.4-5.1a89.6 89.6 0 01141.6-53.8c1.7 1.7 2.6 4.3.9 6-1.7 1.7-4.3 2.5-6 .8A83.2 83.2 0 00158 77.2a81.3 81.3 0 00-79.4 64.9c-.8 1.7-2.6 3.4-4.3 3.4zm-26.4-29H46l-15.4-6.8c-2.5-.9-3.4-3.5-2.5-6 .8-2.6 3.4-3.4 6-2.6l15.3 6.8c2.6.9 3.4 3.5 2.6 6-1.8 1.7-2.6 2.6-4.3 2.6zM242.3 78c-.8 0-2.5 0-3.4-.9a4.1 4.1 0 010-6l24-23.8c1.6-1.7 4.2-1.7 5.9 0s1.7 4.2 0 6l-23.9 23.8c0 .9-1.7.9-2.6.9zm-169 0c-.8 0-2.5 0-3.3-.9L46 53.3c-1.6-1.7-1.6-4.2 0-6s4.3-1.6 6 0l24 24a4.1 4.1 0 010 6c0 .8-1.8.8-2.6.8zM204 52.5h-1.7c-2.5-.9-3.4-3.4-2.5-6l6.8-15.4c.9-2.5 3.4-3.4 6-2.5 2.5.8 3.4 3.4 2.5 6l-6.8 15.3c-1.7.9-2.5 2.6-4.3 2.6zm-92.1 0c-1.7 0-3.4-.9-4.3-2.6l-6.8-15.3c-.9-2.6 0-4.3 2.6-6 2.5-.9 4.2 0 6 2.5l6.8 15.4c.8 2.6 0 4.3-2.6 6h-1.7zm46-9.4c-2.5 0-4.2-1.7-4.2-4.3V4.7c0-2.6 1.7-4.3 4.3-4.3 2.5 0 4.2 1.7 4.2 4.3v34.1c0 2.6-1.7 4.3-4.2 4.3z" fill="#51565f"/></svg>