<svg xmlns="http://www.w3.org/2000/svg" viewBox="0 0 504.3 504.3"><path d="M430 187.7c39.3 11.1 69.2 47 69.2 90.5 0 52-41.8 93.9-93.9 93.9H64a59.4 59.4 0 01-59.7-59.8 60.4 60.4 0 0145.2-58 93.6 93.6 0 01134-122.9c17.9-48.6 64.8-83.6 119.4-83.6 70.9 0 128 57.2 128 128 0 4.3 0 7.7-.8 12" fill="#aab1ba"/><path d="M192 461.7h-1.7c-2.6-.9-3.4-3.5-2.6-6l48.7-113.5h-61.5c-1.7 0-2.5-.9-3.4-1.7-.8-.9-.8-2.6 0-4.3l51.2-119.5c.9-2.5 3.4-3.4 6-2.5 2.6.8 3.4 3.4 2.6 6l-48.7 113.5h61.5c1.7 0 2.5.8 3.4 1.7.8.8.8 2.5 0 4.2l-51.2 119.5a4.7 4.7 0 01-4.3 2.6zm93.9-17.1c-.9 0-1.7 0-2.6-.9-1.7-.8-2.6-4.2-1.7-6l38.4-61.4h-43.5c-1.7 0-2.6-.8-3.4-1.7-.9-.8-.9-2.5-.9-4.3l25.6-68.2c.9-2.6 3.4-3.4 5.1-2.6 2.6.9 3.4 3.4 2.6 5.1l-23 62.3h45.2c1.7 0 2.5.9 3.4 2.6.8 1.7.8 3.4 0 4.3L288.4 442c0 1.7-.8 2.6-2.5 2.6zm119.4-68.3h-42.6c-2.6 0-4.3-1.7-4.3-4.2s1.7-4.3 4.3-4.3h42.6a89.6 89.6 0 0089.6-89.6c0-29-14.5-56.3-37.5-73.4-1.7-1.7-2.6-4.3-.9-6s4.3-2.5 6-.8a100.7 100.7 0 0141.8 80.2 100 100 0 01-99 98.1zm-213.3 0H64c-35 0-64-29-64-64s29-64 64-64c2.6 0 4.3 1.7 4.3 4.3 0 2.5-1.7 4.3-4.3 4.3a55.4 55.4 0 100 110.9h128c2.6 0 4.3 1.7 4.3 4.3s-1.7 4.2-4.3 4.2zm-151.9-145c-1.7 0-3.4-1.8-4.3-3.5-.8-6-1.7-12-1.7-17.9a98.7 98.7 0 0198.2-98.1c27.3 0 52 11 70.8 30.7a4.1 4.1 0 010 6 4.1 4.1 0 01-6 0 89.1 89.1 0 00-64.8-28.2 89.6 89.6 0 00-88 105.8c0 2.6-1.6 4.3-4.2 5.2zm386.6-17.1h-.9c-2.5-.9-3.4-2.6-2.5-5.1 2.5-11.1 4.2-22.2 4.2-33.3a123.7 123.7 0 00-226.1-69.1c-1.7 1.7-4.3 2.5-6 .8-1.7-1.7-2.5-4.2-.8-6a132.6 132.6 0 01110-58.8A133 133 0 01437 174.9c0 12-1.7 24-5.1 35-1.7 3.4-3.4 4.3-5.1 4.3zM75 197.2h-.9c-2.5-1-3.4-3.5-2.5-5.2a66 66 0 0124.7-34.1c1.7-1.7 4.3-.9 6 .8 1.7 1.7.9 4.3-.9 6-10.2 6.8-17.9 18-21.3 29.9-1.7 1.7-3.4 2.5-5.1 2.5zM396.8 180c-2.6 0-4.3-1.8-4.3-4.3 0-17-5-34.1-14.5-48.7-1.7-1.7-.8-4.2.9-6 1.7-1.6 4.2-.8 6 1a99.4 99.4 0 0116.2 53.7c0 2.5-1.7 4.3-4.3 4.3z" fill="#51565f"/></svg>