<svg xmlns="http://www.w3.org/2000/svg" viewBox="0 0 503.8 503.8"><path d="M251.9 124c70.8 0 128 57.2 128 128s-57.2 128-128 128-128-57.1-128-128 57.2-128 128-128" fill="#ffe079"/><path d="M149.5 503.8h-1.7a4.7 4.7 0 01-2.6-4.3v-1.7l14.5-35c.9-2.5 3.4-3.4 6-2.5 1.7.8 2.6 2.5 2.6 4.2v1.7l-14.5 35a4.7 4.7 0 01-4.3 2.6zm204.8-.9c-1.7 0-3.4-.8-4.3-2.5l-14.5-34.2v-1.7c0-1.7.9-3.4 2.6-4.2 2.5-.9 4.2 0 6 2.5l14.5 34.2v1.7c0 1.7-.9 3.4-2.6 4.2h-1.7zm-102.4-16.2c-2.6 0-4.3-1.7-4.3-4.2v-68.3c0-2.6 1.7-4.3 4.3-4.3s4.3 1.7 4.3 4.3v68.3c0 2.5-1.7 4.2-4.3 4.2zm75-49.5c-1.6 0-3.3-.8-4.2-2.5L310 403v-1.7c0-1.7.9-3.4 2.6-4.3 2.5-.8 4.2 0 6 2.6l12.8 31.6v1.7c0 1.7-.9 3.4-2.6 4.2H327zm-150.1 0h-1.7a4.7 4.7 0 01-2.6-4.2v-1.7l12.8-31.6c.9-2.6 3.4-3.4 6-2.6 1.7.9 2.6 2.6 2.6 4.3v1.7L181 434.7a4.7 4.7 0 01-4.3 2.5zm-84.5-17c-.8 0-2.5 0-3.4-.9s-.8-1.7-.8-3.4 0-2.6.8-3.4l48.6-48.7a4.1 4.1 0 016 0c.9.9.9 1.7.9 3.5s0 2.5-.9 3.4L95 419.3c-.9.9-1.7.9-2.6.9zm325.1 0c-.8 0-2.5 0-3.4-.9l-48.6-48.6c-.9-.9-.9-1.7-.9-3.4s0-2.6.9-3.5a4.1 4.1 0 016 0l48.6 48.7c.9.8.9 1.7.9 3.4s0 2.6-.9 3.4c-.9.9-.9.9-2.6.9zM252 384.3c-72.5 0-132.3-59.7-132.3-132.2S179.4 119.8 252 119.8 384.2 179.5 384.2 252s-59.8 132.2-132.3 132.2zm0-256a123.8 123.8 0 000 247.5 123.8 123.8 0 000-247.5zm247.5 230.4h-1.7l-35-14.5a4.7 4.7 0 01-2.6-4.3v-1.7c.9-2.5 3.4-3.4 6-2.5l35 14.5c1.7.8 2.5 2.5 2.5 4.3v1.7a4.7 4.7 0 01-4.2 2.5zm-495 0c-1.7 0-3.4-.8-4.2-2.5v-1.7c0-1.8.8-3.5 2.5-4.3l35-14.5c2.6-.9 4.3 0 6 2.5v1.7c0 1.8-.9 3.5-2.6 4.3l-35 14.5H4.4zm428.4-27.3h-1.7l-31.6-12.8a4.7 4.7 0 01-2.5-4.3v-1.7c.8-2.5 3.4-3.4 6-2.5l31.5 12.8c1.7.8 2.6 2.5 2.6 4.2v1.8a4.7 4.7 0 01-4.3 2.5zm-361.8 0c-1.7 0-3.4-.8-4.3-2.5V327c0-1.7.9-3.4 2.6-4.2l31.6-12.8c2.5-.9 4.2 0 6 2.5v1.7c0 1.8-1 3.5-2.6 4.3l-31.6 12.8H71zm411.3-75H414c-2.5 0-4.2-1.8-4.2-4.3 0-2.6 1.7-4.3 4.2-4.3h68.3c2.6 0 4.3 1.7 4.3 4.3 0 2.5-1.7 4.2-4.3 4.2zm-392.5 0H21.5c-2.6 0-4.3-1.8-4.3-4.3 0-2.6 1.7-4.3 4.3-4.3h68.3c2.5 0 4.2 1.7 4.2 4.3 0 2.5-1.7 4.2-4.2 4.2zm245.7-42.7c-1.7 0-3.4-.9-3.4-2.6-6.8-13.7-18-25.6-30.7-35-1.7-1.7-2.6-4.3-.9-6 1.7-1.7 4.3-2.5 6-.8a96.3 96.3 0 0134.1 37.5c.9 1.7 0 4.3-1.7 6-1.7.9-2.5.9-3.4.9zM101.7 194H100l-31.6-12.8A4.7 4.7 0 0166 177v-1.7c.8-2.6 3.4-3.5 6-2.6l31.5 12.8c1.7.8 2.6 2.6 2.6 4.3v1.7a4.7 4.7 0 01-4.3 2.5zm300.4 0c-1.7 0-3.4-.8-4.3-2.5v-1.7c0-1.7.9-3.5 2.6-4.3l31.5-12.8c2.6-.9 4.3 0 6 2.6v1.7c0 1.7-.8 3.4-2.5 4.2L403.8 194H402zm62.3-25.6c-1.7 0-3.4-.8-4.3-2.5v-1.7c0-1.7.9-3.5 2.6-4.3l35-14.5c2.5-.9 4.2 0 6 2.5v1.8c0 1.7-1 3.4-2.6 4.2l-35 14.5h-1.7zm-425 0h-1.7L2.7 154a4.7 4.7 0 01-2.5-4.2v-1.8c.8-2.5 3.4-3.4 6-2.5l35 14.5c1.6.8 2.5 2.6 2.5 4.3v1.7c-1.7 1.7-2.6 2.5-4.3 2.5zm330.3-25.6c-.9 0-2.6 0-3.5-.8-.8-.9-.8-1.7-.8-3.4s0-2.6.8-3.5l41.9-41.8a4.1 4.1 0 016 0c.8.9.8 1.7.8 3.4 0 1.8 0 2.6-.9 3.5L372.2 142c-.8.8-1.7.8-2.5.8zm-229.6 0c-.8 0-2.6 0-3.4-.8L88 93.3c-.9-.8-.9-1.7-.9-3.4s0-2.5.9-3.4a4.1 4.1 0 016 0l48.6 48.6c.8.9.8 1.8.8 3.5s0 2.5-.8 3.4c-.9.8-1.7.8-2.6.8zm49.5-36.7c-1.7 0-3.4-.8-4.3-2.5L172.5 72v-1.7c0-1.7.9-3.4 2.6-4.3 2.6-.8 4.3 0 6 2.6l12.8 31.6v1.7c0 1.7-.9 3.4-2.6 4.2h-1.7zm124.6 0h-1.7a4.7 4.7 0 01-2.6-4.2v-1.7l12.8-31.6c.9-2.6 3.4-3.4 6-2.6 1.7.9 2.6 2.6 2.6 4.3V72l-12.8 31.6a4.7 4.7 0 01-4.3 2.5zm-62.3-12c-2.6 0-4.3-1.6-4.3-4.2V30.2c0-2.6 1.7-4.3 4.3-4.3s4.3 1.7 4.3 4.3v59.7c0 2.6-1.7 4.3-4.3 4.3zM164 43.9c-1.7 0-3.4-.8-4.3-2.5l-14.5-35V4.6c0-1.7.9-3.4 2.6-4.3 2.5-.8 4.3 0 6 2.6l14.5 35v1.7c0 1.7-.9 3.4-2.6 4.2-.8-.8-1.7 0-1.7 0zm175.8 0H338a4.7 4.7 0 01-2.6-4.2v-1.7l14.5-35c.9-2.6 3.4-3.4 6-2.6 1.7.9 2.6 2.6 2.6 4.3v1.7l-14.5 35c-.9.8-2.6 2.5-4.3 2.5z" fill="#51565f"/></svg>