<svg xmlns="http://www.w3.org/2000/svg" viewBox="0 0 505.2 505.2"><path d="M430 188.2c39.3 11 69.2 46.9 69.2 90.4 0 52-41.8 93.9-93.9 93.9H64a59.4 59.4 0 01-59.7-59.8 60.4 60.4 0 0145.2-58 93.6 93.6 0 01134-122.9c17.9-48.6 64.8-83.6 119.4-83.6 70.9 0 128 57.2 128 128 0 4.3 0 7.7-.8 12" fill="#80d6fa"/><path d="M456.5 462a47.1 47.1 0 01-33.2-13.6 4.1 4.1 0 010-6 4.1 4.1 0 016 0c7.6 7.7 17 11.1 27.2 11.1 21.4 0 38.4-17 38.4-38.4 0-21.3-17-38.4-38.4-38.4H414c-2.6 0-4.3-1.7-4.3-4.2s1.7-4.3 4.3-4.3h42.6c25.6 0 47 21.3 47 47 0 25.5-21.4 46.9-47 46.9zm-85.3 0c-7.7 0-15.4-3.3-21.3-8.5a4.1 4.1 0 010-6 4.1 4.1 0 016 0c4.2 4.3 9.3 6 15.3 6 12 0 21.3-9.3 21.3-21.3s-9.4-21.3-21.3-21.3H157.9c-2.6 0-4.3-1.7-4.3-4.3 0-2.5 1.7-4.3 4.3-4.3h213.3a30.2 30.2 0 0129.9 30 30.2 30.2 0 01-29.9 29.8zm-25.6-85.3H123.7c-2.5 0-4.2-1.7-4.2-4.2 0-2.6 1.7-4.3 4.2-4.3h221.9c25.6 0 47-21.3 47-47s-21.4-46.9-47-46.9-47 21.4-47 47c0 2.5-1.6 4.2-4.2 4.2s-4.3-1.7-4.3-4.2a55.4 55.4 0 1155.5 55.4zm-256 0H64c-35 0-64-29-64-64s29-64 64-64c2.6 0 4.3 1.8 4.3 4.3 0 2.6-1.7 4.3-4.3 4.3a55.4 55.4 0 100 111h25.6c2.6 0 4.3 1.6 4.3 4.2 0 2.5-2.6 4.2-4.3 4.2zm384-29.8c-.9 0-1.7 0-2.6-.9a4.1 4.1 0 010-6 91.8 91.8 0 0024.8-61.4c0-29-14.5-56.3-37.6-73.4-1.7-1.7-2.5-4.2-.8-6 1.7-1.7 4.3-2.5 6-.8a100.7 100.7 0 0141.8 80.2c0 24.8-9.4 48.7-26.5 67.4-3.4.9-4.2.9-5.1.9zM40.1 231.7c-1.7 0-3.4-1.7-4.3-3.4-.8-6-1.7-12-1.7-18a98.7 98.7 0 0198.2-98c27.3 0 52 11 70.8 30.6a4.1 4.1 0 010 6 4.1 4.1 0 01-6 0 89.1 89.1 0 00-64.8-28.2 89.6 89.6 0 00-88 105.9c0 2.5-1.6 4.2-4.2 5zm385.7-17h-.8c-2.6-1-3.5-2.6-2.6-5.2a123.8 123.8 0 00-119.5-157c-41 0-79.3 20.5-102.4 54.6-1.7 1.7-4.2 2.6-6 .8-1.6-1.7-2.5-4.2-.8-6A132.3 132.3 0 01303 43.2a133 133 0 01132.3 132.3c0 12-1.7 23.9-5.1 35-.9 3.4-2.6 4.2-4.3 4.2zM75.1 197.4h-.9c-2.5-.8-3.4-3.4-2.5-5a66 66 0 0124.7-34.2c1.7-1.7 4.3-.9 6 .8 1.7 1.8.9 4.3-.9 6-10.2 6.8-17.9 18-21.3 29.9-1.7 1.7-3.4 2.5-5.1 2.5zm321.7-17c-2.6 0-4.3-1.7-4.3-4.3 0-17-5-34.1-14.5-48.6-1.7-1.7-.8-4.3.9-6 1.7-1.7 4.2-.9 6 .9a99.4 99.4 0 0116.2 53.7c0 2.6-1.7 4.3-4.3 4.3z" fill="#51565f"/></svg>