<svg xmlns="http://www.w3.org/2000/svg" viewBox="0 0 505.2 505.2"><path d="M128 158.7h4.3c18.7 0 35.8 6 51.2 15.4 2.5-6.8 5-12.8 8.5-18.8 1.7-2.6 2.6-5.1 4.3-6.8 1.7-2.6 3.4-5.1 6-7.7 4.2-6 9.3-11 15.3-16.2 1.7-1.7 3.4-2.6 5.1-4.3 2.6-1.7 5.1-4.2 7.7-6 20.5-14.5 46-23 72.5-23 70.9 0 128 57.2 128 128 0 4.3 0 7.7-.8 12 40 11 69.1 46.9 69.1 90.4 0 52-41.8 93.9-93.9 93.9H64a59.4 59.4 0 01-59.7-59.8 60.4 60.4 0 0145.2-58 97.6 97.6 0 01-11.1-44.4 94.2 94.2 0 0136.7-74.2 98.8 98.8 0 0134.1-17c2.6-1 5.1-1 7.7-1.8 2.6-.8 6-.8 8.5-.8.9-.9 1.7-.9 2.6-.9" fill="#80d6fa"/><g fill="#ecf4f7" transform="translate(1 9)"><circle cx="455.5" cy="448.4" r="42.7"/><path d="M370.2 439.9c14.5 0 25.6 11 25.6 25.6s-11 25.6-25.6 25.6a25.1 25.1 0 01-23.9-34.2H157v-17h213.3zM306.2 388.7a51.4 51.4 0 0138.4-85.3c28.2 0 51.2 23 51.2 51.1 0 28.2-23 51.2-51.2 51.2H122.7v-17h183.5z"/></g><path d="M230.4 113.5c-2.6 1.7-5.1 4.3-7.7 6-1.7 1.7-3.4 2.5-5.1 4.2-5.1 5.2-11 10.3-15.4 16.2-1.7 2.6-4.2 5.2-6 7.7-1.6 2.6-3.3 4.3-4.2 6.9-3.4 6-6.8 12.8-9.4 18.7a95.1 95.1 0 00-51.2-15.3H123.7c-3.4 0-6 .8-8.5.8-2.6 0-5.1.9-7.7 1.7a97 97 0 00-34.1 16.2c-1.7-6-2.6-12.8-2.6-19.6 0-47 38.4-85.3 85.4-85.3a92.4 92.4 0 0174.2 41.8" fill="#ffe079"/><path d="M456.5 504.3a47.1 47.1 0 01-33.2-13.6 4.1 4.1 0 010-6 4.1 4.1 0 016 0c7.6 7.7 17 11 27.2 11a38.3 38.3 0 100-76.8H414c-2.6 0-4.3-1.6-4.3-4.2 0-2.5 1.7-4.2 4.3-4.2h42.6c25.6 0 47 21.3 47 46.9s-21.4 47-47 47zm-85.3 0c-7.7 0-15.4-3.4-21.3-8.5a4.1 4.1 0 010-6 4.1 4.1 0 016 0c4.2 4.3 9.3 6 15.3 6 12 0 21.3-9.4 21.3-21.3s-9.4-21.4-21.3-21.4H157.9c-2.6 0-4.3-1.7-4.3-4.2 0-2.6 1.7-4.3 4.3-4.3h213.3c16.2 0 29.9 13.6 29.9 29.9s-13.7 29.8-29.9 29.8zM345.6 419H123.7c-2.5 0-4.2-1.7-4.2-4.3s1.7-4.2 4.2-4.2h221.9c25.6 0 47-21.4 47-47s-21.4-47-47-47-47 21.4-47 47c0 2.6-1.6 4.3-4.2 4.3s-4.3-1.7-4.3-4.3a55.4 55.4 0 1155.5 55.5zm-256 0H64c-35 0-64-29-64-64s29-64 64-64c2.6 0 4.3 1.7 4.3 4.3 0 2.5-1.7 4.2-4.3 4.2a55.4 55.4 0 100 111h25.6c2.6 0 4.3 1.7 4.3 4.2s-2.6 4.3-4.3 4.3zm384-29.9c-.9 0-1.7 0-2.6-.8a4.1 4.1 0 010-6 91.8 91.8 0 0024.8-61.4c0-29-14.5-56.4-37.6-73.4-1.7-1.7-2.5-4.3-.8-6 1.7-1.7 4.3-2.6 6-.9a100.7 100.7 0 0141.8 80.3c0 24.7-9.4 48.6-26.5 67.4-3.4.8-4.2.8-5.1.8zM40.1 274c-1.7 0-3.4-1.7-4.3-3.4-.8-6-1.7-12-1.7-18a98.7 98.7 0 0198.2-98c27.3 0 52 11 70.8 30.7a4.1 4.1 0 010 6 4.1 4.1 0 01-6 0 89.1 89.1 0 00-64.8-28.2 89.6 89.6 0 00-88 105.8c0 2.6-1.6 4.3-4.2 5.1zm385.7-17h-.8c-2.6-.9-3.5-2.6-2.6-5.2a123.8 123.8 0 00-119.5-157c-41 0-79.3 20.5-102.4 54.6-1.7 1.7-4.2 2.6-6 .9-1.6-1.7-2.5-4.3-.8-6A132.3 132.3 0 01303 85.3a133 133 0 01132.3 132.3c0 12-1.7 23.9-5.1 35-.9 3.4-2.6 4.3-4.3 4.3zM75.1 239.8h-.9c-2.5-.9-3.4-3.4-2.5-5.1a66 66 0 0124.7-34.2c1.7-1.7 4.3-.8 6 .9 1.7 1.7.9 4.3-.9 6-10.2 6.8-17.9 17.9-21.3 29.8-1.7 1.7-3.4 2.6-5.1 2.6zm321.7-17c-2.6 0-4.3-1.8-4.3-4.3 0-17.1-5-34.2-14.5-48.7-1.7-1.7-.8-4.3.9-6 1.7-1.7 4.2-.8 6 .9a99.4 99.4 0 0116.2 53.8c0 2.5-1.7 4.2-4.3 4.2zM38.4 163H4.3c-2.6 0-4.3-1.7-4.3-4.3 0-2.5 1.7-4.2 4.3-4.2h34.1c2.6 0 4.3 1.7 4.3 4.2 0 2.6-1.7 4.3-4.3 4.3zm35.8-17h-.8c-2.6-1-3.4-2.6-3.4-5.2A89.6 89.6 0 01211.6 87c1.7 1.7 2.6 4.3.9 6-1.7 1.7-4.3 2.6-6 .9A83.2 83.2 0 00158 77.7a81.3 81.3 0 00-79.4 64.8c-.8 1.7-2.6 3.4-4.3 3.4zm-26.4-29H46l-15.4-7c-2.5-.8-3.4-3.3-2.5-5.9s3.4-3.4 6-2.6l15.3 6.9c2.6.8 3.4 3.4 2.6 6-1.8 1.7-2.6 2.5-4.3 2.5zm194.5-38.5c-.8 0-2.5 0-3.4-.8a4.1 4.1 0 010-6l24-24c1.6-1.6 4.2-1.6 5.9 0s1.7 4.4 0 6l-23.9 24c0 .8-1.7.8-2.6.8zm-169 0c-.8 0-2.5 0-3.3-.8l-24-24c-1.6-1.6-1.6-4.2 0-6s4.3-1.6 6 0l24 24a4.1 4.1 0 010 6c0 .8-1.8.8-2.6.8zM204 53h-1.7c-2.5-.8-3.4-3.4-2.5-6l6.8-15.3c.9-2.6 3.4-3.4 6-2.6 2.5.9 3.4 3.4 2.5 6l-6.8 15.3c-1.7.9-2.5 2.6-4.3 2.6zm-92.1 0c-1.7 0-3.4-.8-4.3-2.6L100.7 35c-.9-2.6 0-4.3 2.6-6 2.5-.8 4.2 0 6 2.6l6.8 15.3c.8 2.6 0 4.3-2.6 6h-1.7zm46-9.4c-2.5 0-4.2-1.7-4.2-4.2V5c0-2.5 1.7-4.2 4.3-4.2 2.5 0 4.2 1.7 4.2 4.2v34.2c0 2.5-1.7 4.2-4.2 4.2z" fill="#51565f"/></svg>