<svg xmlns="http://www.w3.org/2000/svg" viewBox="0 0 503.5 503.5"><g fill="#ecf4f7"><path d="M351.6 183.5A68.5 68.5 0 01396.8 64c37.5 0 68.3 30.7 68.3 68.3s-30.8 68.2-68.3 68.2H21.3v-17h330.3zM456.5 251.7a42.3 42.3 0 0142.7 42.7c0 23.9-18.8 42.7-42.7 42.7S414 318.3 414 294.4c0-9.4 3.4-18.8 8.5-25.6H4.3v-17h452.2zM234.7 354.1c23.9 0 42.6 18.8 42.6 42.7s-18.7 42.7-42.6 42.7-42.7-18.8-42.7-42.7c0-9.4 3.4-18.8 8.5-25.6H38.4v-17h196.3z"/><path d="M337 303c14.6 0 25.7 11 25.7 25.5s-11.1 25.6-25.6 25.6a25.1 25.1 0 01-24-34.1H21.4v-17h315.8zM236.4 132.3a25.1 25.1 0 0123.9-34.1c14.5 0 25.6 11 25.6 25.5s-11.1 25.6-25.6 25.6H38.4v-17h198z"/></g><path d="M234.7 443.7c-25.6 0-47-21.3-47-46.9 0-2.6 1.7-4.3 4.3-4.3s4.3 1.7 4.3 4.3c0 21.3 17 38.4 38.4 38.4s38.4-17 38.4-38.4-17.1-38.4-38.4-38.4H38.4c-2.6 0-4.3-1.7-4.3-4.3 0-2.5 1.7-4.2 4.3-4.2h196.3c25.6 0 46.9 21.3 46.9 46.9s-21.3 47-47 47zM337 358.4c-7.7 0-15.4-3.4-21.4-8.5a4.1 4.1 0 010-6 4.1 4.1 0 016 0c4.3 4.3 9.4 6 15.4 6 12 0 21.3-9.4 21.3-21.4s-9.4-21.3-21.3-21.3H21.3c-2.5 0-4.2-1.7-4.2-4.3s1.7-4.2 4.2-4.2h315.8c16.2 0 29.8 13.6 29.8 29.8s-13.6 29.9-29.8 29.9zm119.4-17c-25.6 0-46.9-21.4-46.9-47 0-2.6 1.7-4.3 4.3-4.3s4.2 1.7 4.2 4.3c0 21.3 17.1 38.4 38.4 38.4s38.4-17 38.4-38.4c0-21.3-17-38.4-38.4-38.4H4.3c-2.6 0-4.3-1.7-4.3-4.3 0-2.5 1.7-4.2 4.3-4.2h452.2c25.6 0 47 21.3 47 46.9s-21.4 47-47 47zm-59.7-136.6H21.3c-2.5 0-4.2-1.7-4.2-4.3 0-2.5 1.7-4.2 4.2-4.2h375.5c29.9 0 64-28.2 64-64s-34.1-64-64-64c-35 0-64 29-64 64 0 2.5-1.7 4.2-4.3 4.2s-4.2-1.7-4.2-4.2a72.5 72.5 0 0172.5-72.6c34.1 0 72.5 30.8 72.5 72.6s-38.4 72.5-72.5 72.5zm-135.7-51.2H38.4c-2.6 0-4.3-1.7-4.3-4.3s1.7-4.2 4.3-4.2h222.7c12 0 20.5-9.4 20.5-21.4 0-12-8.5-21.3-20.5-21.3-6 0-11 2.6-15.3 6a4.1 4.1 0 01-6 0 4.1 4.1 0 010-6c6-6 12.8-8.5 21.3-8.5 16.2 0 29 12.8 29 29.8s-12.8 29.9-29 29.9z" fill="#51565f"/></svg>