<svg version="1.1" id="Layer_1" xmlns="http://www.w3.org/2000/svg" x="0" y="0" viewBox="0 0 130 130" xml:space="preserve"><style>.st0{fill:none;stroke:#000;stroke-width:4;stroke-miterlimit:10}</style><path class="st0" d="M74.3 122.1c-.7 0-1.5-.2-2.2-.4-1.5-.6-2.8-1.5-3.3-3a5.3 5.3 0 01-.2-4.1l10-25.7c.4-.9 0-2-.9-2.6L61 76c-.4-.2-.7-.4-1.1-.4-.6 0-1.1.2-1.7.7L45.7 90.6a7.2 7.2 0 01-4.1 2l-28.1 2.2c-3 0-5.4-2.2-5.7-5-.2-1.3.4-2.8 1.3-3.9a6 6 0 014.1-1.8l24-1.8c.7 0 1.5-.6 1.8-1.3 5-6.3 25.1-32.5 31.4-40.4l.4-.4c.4-.6.6-1.3.4-2-.2-.7-.7-1.1-1.5-1.3l-10.2-2.6h-.6c-.4 0-.7.2-1.1.4L40.5 45.5a6.3 6.3 0 01-3.5 1.1c-.4 0-.7 0-1.1-.2-1.5-.2-3-1.1-3.9-2.2-.7-1.1-1.1-2.4-.9-3.9s1.1-2.8 2.4-3.7l20.3-12.9a7 7 0 013.5-.9 5 5 0 011.7.2h.4l25.9 6.5h.4l.2.2c.2.2.4.2.6.2l.6.4c.2.2.4.4.6.4l.4.4c.2.2.2.4.4.4L101 49.4a2 2 0 001.7.9h13.7a6 6 0 015.9 5c.2 1.3-.4 2.8-1.5 3.9S118 61 116.3 61H98.9c-2 0-4.1-.9-5.2-2.6l-3.9-5.5a2 2 0 00-1.7-.9c-.7 0-1.3.4-1.7.9l-9.1 14.6c-.6.9-.4 2 .6 2.8l12.9 10a5 5 0 011.7 5.9l-12.4 31.9a6 6 0 01-5.8 4zM97.8 28.4c-2.2 0-4.3-.6-5.9-1.7-6.1-3.9-5.9-12.9.2-17 1.8-1.3 4.1-1.8 6.3-1.8h.9c1.7.2 3.3.7 4.8 1.5 6.5 3.7 7 13.3.7 17.4a10.7 10.7 0 01-5.9 1.7h-1.1z"/></svg>
