<svg viewBox="0 0 784 361" xmlns="http://www.w3.org/2000/svg" xmlns:xlink="http://www.w3.org/1999/xlink"><linearGradient id="l" gradientTransform="matrix(1 0 0 -1 0 361.7)" gradientUnits="userSpaceOnUse" x1="489" x2="489" y1="361.7" y2="98.7"><stop offset="0" stop-color="#3d86c7"/><stop offset="1" stop-color="#d4f1f5" stop-opacity="0"/></linearGradient><linearGradient id="a" gradientTransform="matrix(1 0 0 -1 0 361.7)" gradientUnits="userSpaceOnUse" x1="515.1" x2="515.1" y1="233" y2="-29.9"><stop offset="0" stop-color="#448bc9"/><stop offset=".2" stop-color="#6fa9d6"/><stop offset=".3" stop-color="#94c3e1"/><stop offset=".5" stop-color="#b1d7ea"/><stop offset=".7" stop-color="#c5e5f0"/><stop offset=".8" stop-color="#d2eef4"/><stop offset="1" stop-color="#d6f1f5"/></linearGradient><linearGradient id="m" x1="303.8" x2="303.8" xlink:href="#a" y1="233.8" y2="98.7"/><linearGradient id="n" x1="467.8" x2="467.8" xlink:href="#a" y1="246.3" y2="98.7"/><linearGradient id="o" x1="381.5" x2="381.5" xlink:href="#a" y1="275.1" y2="98.7"/><linearGradient id="p" x1="605.1" x2="605.1" xlink:href="#a" y1="296.5" y2="35.4"/><linearGradient id="q" gradientTransform="matrix(1 0 0 -1 0 361.7)" gradientUnits="userSpaceOnUse" x1="961.2" x2="-54.3" y1="72.9" y2="72.9"><stop offset="0" stop-color="#cfeff4"/><stop offset="1" stop-color="#4dc4d5"/></linearGradient><linearGradient id="r" gradientTransform="matrix(1 0 0 -1 0 361.7)" gradientUnits="userSpaceOnUse" x2="235.6" y1="61.4" y2="61.4"><stop offset="0" stop-color="#6bcedc"/><stop offset="1" stop-color="#6fcfdd"/></linearGradient><linearGradient id="b" gradientTransform="matrix(1 0 0 -1 0 361.7)" gradientUnits="userSpaceOnUse" x1="148.2" x2="148.2" y1="112.8" y2="48.3"><stop offset="0" stop-color="#405e9f"/><stop offset=".1" stop-color="#3e5c9e"/><stop offset="1" stop-color="#4f4788"/></linearGradient><linearGradient id="c" gradientTransform="matrix(1 0 0 -1 0 361.7)" gradientUnits="userSpaceOnUse" x1="336" x2="336" y1="37.6" y2="436.4"><stop offset="0" stop-color="#4f4788"/><stop offset="0" stop-color="#4f4989"/><stop offset=".2" stop-color="#5776a4"/><stop offset=".5" stop-color="#5c99b9"/><stop offset=".7" stop-color="#61b2c9"/><stop offset=".8" stop-color="#63c2d2"/><stop offset="1" stop-color="#64c7d5"/></linearGradient><linearGradient id="s" x1="400.2" x2="400.2" xlink:href="#b" y1="281.8" y2="51.3"/><linearGradient id="t" x1="375.3" x2="375.3" xlink:href="#b" y1="288.5" y2="273.8"/><linearGradient id="u" x1="398" x2="398" xlink:href="#b" y1="281.8" y2="273.6"/><linearGradient id="v" x1="302.8" x2="302.8" xlink:href="#b" y1="181.8" y2="49.5"/><linearGradient id="w" x1="298" x2="298" xlink:href="#b" y1="205.8" y2="177.6"/><linearGradient id="x" x1="456.6" x2="456.6" xlink:href="#c" y1="37.6" y2="436.4"/><linearGradient id="y" x1="492.8" x2="492.8" xlink:href="#b" y1="248.4" y2="50.7"/><linearGradient id="z" x1="489" x2="489" xlink:href="#b" y1="249.6" y2="241.5"/><linearGradient id="A" x1="413.5" x2="413.5" xlink:href="#c" y1="37.6" y2="436.4"/><linearGradient id="B" x1="442.8" x2="442.8" xlink:href="#b" y1="186.1" y2="49.6"/><linearGradient id="C" x1="507.4" x2="507.4" xlink:href="#b" y1="112.8" y2="48.3"/><linearGradient id="D" x1="419.4" x2="419.4" xlink:href="#b" y1="124.9" y2="110.8"/><linearGradient id="E" x1="392.9" x2="392.9" xlink:href="#b" y1="132" y2="124.5"/><linearGradient id="F" x1="274.5" x2="274.5" xlink:href="#b" y1="97.5" y2="48"/><linearGradient id="G" x1="706.7" x2="706.7" xlink:href="#c" y1="37.6" y2="436.4"/><linearGradient id="H" x1="749.6" x2="749.6" xlink:href="#b" y1="136.9" y2="48.7"/><linearGradient id="I" x1="587.5" x2="587.5" xlink:href="#b" y1="204.7" y2="49.9"/><linearGradient id="J" x1="575.5" x2="575.5" xlink:href="#b" y1="215.4" y2="199.4"/><linearGradient id="K" x1="545.5" x2="545.5" xlink:href="#b" y1="223.5" y2="215"/><linearGradient id="L" x1="578.6" x2="578.6" xlink:href="#b" y1="223.5" y2="215"/><linearGradient id="d" gradientTransform="matrix(1 0 0 -1 0 361.7)" gradientUnits="userSpaceOnUse" x1="264.9" x2="167.9" y1="42" y2="127.6"><stop offset="0" stop-color="#0c5c7a"/><stop offset="1" stop-color="#3fc3d1"/></linearGradient><linearGradient id="j" gradientTransform="matrix(1 0 0 -1 0 361.7)" gradientUnits="userSpaceOnUse" x1="253.6" x2="185.2" y1="34.7" y2="66.7"><stop offset="0" stop-color="#3fc3d1"/><stop offset=".4" stop-color="#42c5d3"/><stop offset=".6" stop-color="#4acbd9"/><stop offset=".8" stop-color="#58d5e2"/><stop offset="1" stop-color="#6ce3f0"/></linearGradient><linearGradient id="M" x1="585.3" x2="525" xlink:href="#d" y1="92.3" y2="226.3"/><linearGradient id="f" gradientTransform="matrix(1 0 0 -1 0 361.7)" gradientUnits="userSpaceOnUse" x1="315.1" x2="380.7" y1="148.9" y2="28.2"><stop offset="0" stop-color="#ffe8b8"/><stop offset=".1" stop-color="#fff0d2"/><stop offset=".3" stop-color="#fff7e6"/><stop offset=".5" stop-color="#fffbf4"/><stop offset=".7" stop-color="#fffefc"/><stop offset="1" stop-color="#fff"/></linearGradient><linearGradient id="g" gradientTransform="matrix(1 0 0 -1 0 361.7)" gradientUnits="userSpaceOnUse" x1="329.3" x2="349.1" y1="175" y2="117"><stop offset="0" stop-color="#a31f03"/><stop offset=".1" stop-color="#af3918" stop-opacity=".9"/><stop offset=".2" stop-color="#c5663c" stop-opacity=".8"/><stop offset=".4" stop-color="#d78c5a" stop-opacity=".6"/><stop offset=".6" stop-color="#e5a971" stop-opacity=".5"/><stop offset=".7" stop-color="#efbd82" stop-opacity=".3"/><stop offset=".8" stop-color="#f5ca8c" stop-opacity=".1"/><stop offset="1" stop-color="#f7ce8f" stop-opacity="0"/></linearGradient><linearGradient id="N" gradientTransform="matrix(1 0 0 -1 0 361.7)" gradientUnits="userSpaceOnUse" x1="384.2" x2="510.8" y1="141.1" y2="44.5"><stop offset="0" stop-color="#ffe8b8"/><stop offset="0" stop-color="#ffeabd"/><stop offset=".3" stop-color="#fff3da"/><stop offset=".5" stop-color="#fffaee"/><stop offset=".8" stop-color="#fffefb"/><stop offset="1" stop-color="#fff"/></linearGradient><linearGradient id="O" gradientTransform="matrix(1 0 0 -1 0 361.7)" gradientUnits="userSpaceOnUse" x1="547.8" x2="575.4" y1="9.6" y2="122"><stop offset="0" stop-color="#d97e62"/><stop offset=".1" stop-color="#de8c6a"/><stop offset=".3" stop-color="#e9a97a"/><stop offset=".6" stop-color="#f1bd86"/><stop offset=".8" stop-color="#f5ca8d"/><stop offset="1" stop-color="#f7ce8f"/></linearGradient><linearGradient id="e" gradientTransform="matrix(1 0 0 -1 0 361.7)" gradientUnits="userSpaceOnUse" x1="423" x2="498.3" y1="74.5" y2="74.5"><stop offset="0" stop-color="#e8b37c"/><stop offset=".2" stop-color="#eeb285"/><stop offset=".6" stop-color="#f6b092"/><stop offset="1" stop-color="#f9b096"/></linearGradient><linearGradient id="P" x1="416.1" x2="434.5" xlink:href="#e" y1="129.8" y2="224.7"/><linearGradient id="Q" x1="406.5" x2="422.6" xlink:href="#f" y1="178.1" y2="156.3"/><linearGradient id="R" x1="421.2" x2="497.7" xlink:href="#g" y1="107.8" y2="56.8"/><linearGradient id="h" gradientTransform="matrix(1 0 0 -1 0 361.7)" gradientUnits="userSpaceOnUse" x1="415.7" x2="479.4" y1="100.9" y2="28.1"><stop offset="0" stop-color="#961e2b"/><stop offset=".1" stop-color="#a6414c" stop-opacity=".9"/><stop offset=".1" stop-color="#bb6d75" stop-opacity=".9"/><stop offset=".2" stop-color="#cd949a" stop-opacity=".8"/><stop offset=".3" stop-color="#ddb5ba" stop-opacity=".7"/><stop offset=".4" stop-color="#e9d0d3" stop-opacity=".6"/><stop offset=".5" stop-color="#f3e5e7" stop-opacity=".5"/><stop offset=".6" stop-color="#faf4f4" stop-opacity=".4"/><stop offset=".8" stop-color="#fefcfd" stop-opacity=".2"/><stop offset="1" stop-color="#fff" stop-opacity="0"/></linearGradient><linearGradient id="S" x1="426.2" x2="356.4" xlink:href="#h" y1="73" y2="101.1"/><linearGradient id="T" x1="445" x2="445" xlink:href="#h" y1="146.8" y2="67.7"/><linearGradient id="i" gradientTransform="matrix(1 0 0 -1 0 361.7)" gradientUnits="userSpaceOnUse" x1="407" x2="407" y1="134.8" y2="45.9"><stop offset="0" stop-color="#fff" stop-opacity="0"/><stop offset="1" stop-color="#fff" stop-opacity=".9"/></linearGradient><linearGradient id="U" x1="521.5" x2="521.5" xlink:href="#i" y1="119.6" y2="45.9"/><linearGradient id="V" x1="560.8" x2="626.5" xlink:href="#j" y1="31.7" y2="56.5"/><linearGradient id="k" gradientTransform="matrix(1 0 0 -1 0 361.7)" gradientUnits="userSpaceOnUse" x1="629.4" x2="780.5" y1="6" y2="6"><stop offset="0" stop-color="#d5cab7"/><stop offset="1" stop-color="#d5cab7" stop-opacity="0"/></linearGradient><linearGradient id="W" x1="646.7" x2="597.5" xlink:href="#d" y1="67.3" y2="176.6"/><linearGradient id="X" x1="619.4" x2="580.2" xlink:href="#j" y1="99.8" y2="183.8"/><linearGradient id="Y" x1="251.5" x2="395.5" xlink:href="#k" y1="31.5" y2="31.5"/><linearGradient id="Z" x1="267.2" x2="220.1" xlink:href="#d" y1="75.9" y2="154.1"/><linearGradient id="aa" x1="243.5" x2="210.4" xlink:href="#j" y1="106.6" y2="152.1"/><g opacity=".4"><path d="M731 263V150.2c0-3.9-.7-3.5-4.7-3.5H690c-2.8 0-4.7-1-4.7-4.4v-20.9c0-2.8-1-5.2-5.3-5.2h-33c-5.1 0-9.3 1.6-9.3 6.4V161c0 2.6-.3 3.7-4.2 3.7h-11.8c-4 0-5-3-4.9-6.3V69c0-3.4-.6-4-3.3-4h-28.2c-3.2 0-5.5-1-5.5-3.4V35.4c0-4.5-.8-6.6-4.6-6.6h-33.4c-4.5 0-5 2.7-5 7.3l.1 42c0 2-.7 3.3-2.4 3.3h-9.8c-3.4 0-3.4-1.7-3.4-5.2l-1-69.7c0-4.8-.7-6.5-4.7-6.5H473c-3.2 0-4 3.3-4 5 0 8 1.2 43.3 1.2 50.3a2.7 2.7 0 01-3 2.7H457a2.6 2.6 0 01-2.6-2.5L454 26a2.7 2.7 0 00-2.8-2.6l-31 .6a3.3 3.3 0 00-3.2 3.3v85.3c0 1.9-.6 2.7-2.4 2.7h-9.5c-1 0-1.7-.4-1.7-1.4v-7c0-2.4-1-2.6-3.5-2.6h-10.3a2.4 2.4 0 01-2.4-2.3l-.2-13.2c0-.6-.4-2.4-2-2.4l-36.6.1c-2.5 0-3.3 1-3.3 4l.1 60.5a3.7 3.7 0 01-3.3 3.2l-27 .3a3 3 0 01-2.7-3v-20.2c0-2 0-3.6-3.2-3.6l-39.2.2c-3 0-6.9-.3-6.9 3.4v13c0 2.4-.1 4.5-3.5 4.5H252c-4 0-5 1.9-5 5.5 0 11.5-.2 86.7 0 108.5h484z" fill="url(#l)"/><path d="M521.3 76.3V263H509V0h6.4c4 0 4.8 1.7 4.8 6.5l1 69.8z" fill="url(#a)"/><path d="M312 131.4V263h-14.2V131.5c0-2.2 0-3.5-2.3-3.6H309c3.1.1 3.2 1.6 3.2 3.5z" fill="url(#m)"/><path d="M481.1 115.4h-26.7V263h26.7z" fill="url(#n)"/><path d="M368.4 98.3h-22.2a1 1 0 01-1.1-1.1v-2.4a1 1 0 011-1.1h22.3a1 1 0 011.1 1v2.5a1.2 1.2 0 01-1.1 1z" fill="#fff"/><path d="M387.2 102.2V263h-9V89c0-1-.2-2.4-2-2.4h8.7A2.3 2.3 0 01387 89l.2 13.2z" fill="url(#o)"/><path d="M617 65.2h-23.6V263h23.5z" fill="url(#p)"/></g><path d="M784 314.6H149c4.6-15.8 44.5-37.9 106-29.1 26.7 3.8 54.3-18.7 83.8-16 41.8 3.6 37.5 14.3 83.7 14.3 52.6-.1 83.6-23.1 132.2-20.8 42.3 2 52.3 17.6 104.5 18.5 34.6.6 116.2 31.3 124.7 33.4v-.3z" fill="url(#q)"/><path d="M0 315.9h386c-9.5-11.4-40.2-23.8-72.9-21.4-30.5 2.2-38.1 7.4-71.6 7.4s-53-18-83.8-17c-26.9 1-39.2 13.7-72.3 14.2C63.5 299.3 8 313.6 0 315v.9z" fill="url(#r)"/><path d="M139.1 251.2H94.2v63.4h45z" fill="#64c7d5"/><path d="M157.2 251.2h-18v63.4h18z" fill="url(#b)"/><path d="M135.8 256.7H97.5v4.4h38.3z" fill="#cdfdf9"/><path d="M155.2 256.7h-13.5v4.4h13.5z" fill="#4f4788"/><path d="M135.8 265.5H97.5v4.4h38.3z" fill="#cdfdf9"/><path d="M155.2 265.5h-13.5v4.4h13.5z" fill="#4f4788"/><path d="M135.8 274.2H97.5v4.5h38.3z" fill="#cdfdf9"/><path d="M155.2 274.2h-13.5v4.5h13.5z" fill="#4f4788"/><path d="M135.8 283H97.5v4.4h38.3z" fill="#cdfdf9"/><path d="M155.2 283h-13.5v4.4h13.5z" fill="#4f4788"/><path d="M135.8 291.8H97.5v4.4h38.3z" fill="#cdfdf9"/><path d="M155.2 291.8h-13.5v4.4h13.5z" fill="#4f4788"/><path d="M135.8 300.6H97.5v4.4h38.3z" fill="#cdfdf9"/><path d="M155.2 300.6h-13.5v4.4h13.5z" fill="#4f4788"/><path d="M135.8 309.3H97.5v4.4h38.3z" fill="#cdfdf9"/><path d="M155.2 309.3h-13.5v4.4h13.5z" fill="#4f4788"/><path d="M379 88.2h-86.1v226.4H379z" fill="url(#c)"/><path d="M421.4 88.2H379v226.4h42.3z" fill="url(#s)"/><path d="M379 98.8h-48.7v5.2H379z" fill="#cdfdf9"/><path d="M403.1 98.8H379v5.2h24.1zm18.3 0h-11v5.2h11z" fill="#3e5c9e"/><path d="M310.2 98.8h-17.3v5.2h17.3zM379 110h-13.7v5.2H379z" fill="#cdfdf9"/><path d="M390 110h-11v5.2h11zm31.4 0h-24.1v5.2h24z" fill="#3e5c9e"/><path d="M344.9 110h-52v5.2h52zm34.1 12.3h-48.7v5.1H379z" fill="#cdfdf9"/><path d="M403.1 122.3H379v5.1h24.1zm18.3 0h-11v5.1h11z" fill="#3e5c9e"/><path d="M310.2 122.3h-17.3v5.1h17.3zm68.8 11.2h-13.7v5.2H379z" fill="#cdfdf9"/><path d="M390 133.5h-11v5.2h11zm31.4 0h-24.1v5.2h24z" fill="#3e5c9e"/><path d="M344.9 133.5h-52v5.2h52zm34.1 12.2h-48.7v5.1H379z" fill="#cdfdf9"/><path d="M403.1 145.7H379v5.1h24.1zm18.3 0h-11v5.1h11z" fill="#3e5c9e"/><path d="M310.2 145.7h-17.3v5.1h17.3zm68.8 11.2h-13.7v5.1H379z" fill="#cdfdf9"/><path d="M390 156.9h-11v5.1h11zm31.4 0h-24.1v5.1h24z" fill="#3e5c9e"/><path d="M344.9 156.9h-52v5.1h52zM379 169h-48.7v5.2H379z" fill="#cdfdf9"/><path d="M403.1 169H379v5.2h24.1zm18.3 0h-11v5.2h11z" fill="#3e5c9e"/><path d="M310.2 169h-17.3v5.2h17.3zm68.8 11.3h-13.7v5.1H379z" fill="#cdfdf9"/><path d="M390 180.3h-11v5.1h11zm31.4 0h-24.1v5.1h24z" fill="#3e5c9e"/><path d="M344.9 180.3h-52v5.1h52zm34.1 12.2h-48.7v5.1H379z" fill="#cdfdf9"/><path d="M403.1 192.5H379v5.1h24.1zm18.3 0h-11v5.1h11z" fill="#3e5c9e"/><path d="M310.2 192.5h-17.3v5.1h17.3zm68.8 11.2h-13.7v5.1H379z" fill="#cdfdf9"/><path d="M390 203.7h-11v5.1h11zm31.4 0h-24.1v5.1h24z" fill="#3e5c9e"/><path d="M344.9 203.7h-52v5.1h52zm34.1 12.2h-48.7v5.1H379z" fill="#cdfdf9"/><path d="M403.1 215.9H379v5.1h24.1zm18.3 0h-11v5.1h11z" fill="#3e5c9e"/><path d="M310.2 215.9h-17.3v5.1h17.3zM379 227h-13.7v5.2H379z" fill="#cdfdf9"/><path d="M390 227h-11v5.2h11zm31.4 0h-24.1v5.2h24z" fill="#3e5c9e"/><path d="M344.9 227h-52v5.2h52zm34.1 12.3h-48.7v5.1H379z" fill="#cdfdf9"/><path d="M403.1 239.3H379v5.1h24.1zm18.3 0h-11v5.1h11z" fill="#3e5c9e"/><path d="M310.2 239.3h-17.3v5.1h17.3zm68.8 11.2h-13.7v5.2H379z" fill="#cdfdf9"/><path d="M390 250.5h-11v5.2h11zm31.4 0h-24.1v5.2h24z" fill="#3e5c9e"/><path d="M344.9 250.5h-52v5.2h52zm34.1 12.2h-48.7v5.1H379z" fill="#cdfdf9"/><path d="M403.1 262.7H379v5.1h24.1zm18.3 0h-11v5.1h11z" fill="#3e5c9e"/><path d="M310.2 262.7h-17.3v5.1h17.3zm68.8 11.2h-13.7v5.1H379z" fill="#cdfdf9"/><path d="M390 273.9h-11v5.1h11zm31.4 0h-24.1v5.1h24z" fill="#3e5c9e"/><path d="M344.9 273.9h-52v5.1h52zM379 286h-48.7v5.2H379z" fill="#cdfdf9"/><path d="M403.1 286H379v5.2h24.1zm18.3 0h-11v5.2h11z" fill="#3e5c9e"/><path d="M310.2 286h-17.3v5.2h17.3zm68.8 11.3h-13.7v5.1H379z" fill="#cdfdf9"/><path d="M390 297.3h-11v5.1h11zm31.4 0h-24.1v5.1h24z" fill="#3e5c9e"/><path d="M353.6 297.3H293v5.1h60.7z" fill="#cdfdf9"/><path d="M366 73.7h-31.4v14.5H366z" fill="#64c7d5"/><path d="M384.5 73.7H366v14.5h18.4z" fill="url(#t)"/><path d="M392.9 80.3h-17.7v8H393z" fill="#64c7d5"/><path d="M403.1 80.3H393v8h10z" fill="url(#u)"/><path d="M356.2 43.5h-3.8v36.8h3.8zm-74.7 141.1H209v130h72.5z" fill="#64c7d5"/><path d="M324 184.6h-42.4v130h42.3z" fill="url(#v)"/><path d="M281.5 156.9H223v27.7h58.6z" fill="#64c7d5"/><path d="M314.3 156.9h-32.7v27.7h32.7z" fill="url(#w)"/><path d="M219.2 192.5H215v11.9h4.1zm7.7 0h-4.1v11.9h4zm7.7 0h-4.1v11.9h4zm7.7 0h-4.1v11.9h4.1zm7.7 0h-4.1v11.9h4.1zm7.8 0h-4.2v11.9h4.1zm7.7 0h-4.1v11.9h4zm7.7 0H269v11.9h4z" fill="#cdfdf9"/><path d="M320.7 192.5H318v11.9h2.7zm-5 0H313v11.9h2.7zm-5.1 0H308v11.9h2.7zm-5 0h-2.7v11.9h2.7zm-5.1 0h-2.7v11.9h2.7zm-5.1 0h-2.6v11.9h2.6zm-5 0h-2.7v11.9h2.7z" fill="#4f4788"/><path d="M219.2 207.4H215v12h4.1zm7.7 0h-4.1v12h4zm7.7 0h-4.1v12h4zm7.7 0h-4.1v12h4.1zm7.7 0h-4.1v12h4.1zm7.8 0h-4.2v12h4.1zm7.7 0h-4.1v12h4zm7.7 0H269v12h4z" fill="#cdfdf9"/><path d="M320.7 207.4H318v12h2.7zm-5 0H313v12h2.7zm-5.1 0H308v12h2.7zm-5 0h-2.7v12h2.7zm-5.1 0h-2.7v12h2.7zm-5.1 0h-2.6v12h2.6zm-5 0h-2.7v12h2.7z" fill="#4f4788"/><path d="M219.2 222.4H215v11.9h4.1zm7.7 0h-4.1v11.9h4zm7.7 0h-4.1v11.9h4zm7.7 0h-4.1v11.9h4.1zm7.7 0h-4.1v11.9h4.1zm7.8 0h-4.2v11.9h4.1zm7.7 0h-4.1v11.9h4zm7.7 0H269v11.9h4z" fill="#cdfdf9"/><path d="M320.7 222.4H318v11.9h2.7zm-5 0H313v11.9h2.7zm-5.1 0H308v11.9h2.7zm-5 0h-2.7v11.9h2.7zm-5.1 0h-2.7v11.9h2.7zm-5.1 0h-2.6v11.9h2.6zm-5 0h-2.7v11.9h2.7z" fill="#4f4788"/><path d="M219.2 237.3H215v12h4.1zm7.7 0h-4.1v12h4zm7.7 0h-4.1v12h4zm7.7 0h-4.1v12h4.1zm7.7 0h-4.1v12h4.1zm7.8 0h-4.2v12h4.1zm7.7 0h-4.1v12h4zm7.7 0H269v12h4z" fill="#cdfdf9"/><path d="M320.7 237.3H318v12h2.7zm-5 0H313v12h2.7zm-5.1 0H308v12h2.7zm-5 0h-2.7v12h2.7zm-5.1 0h-2.7v12h2.7zm-5.1 0h-2.6v12h2.6zm-5 0h-2.7v12h2.7z" fill="#4f4788"/><path d="M219.2 252.3H215v12h4.1zm7.7 0h-4.1v12h4zm7.7 0h-4.1v12h4zm7.7 0h-4.1v12h4.1zm7.7 0h-4.1v12h4.1zm7.8 0h-4.2v12h4.1zm7.7 0h-4.1v12h4zm7.7 0H269v12h4z" fill="#cdfdf9"/><path d="M320.7 252.3H318v12h2.7zm-5 0H313v12h2.7zm-5.1 0H308v12h2.7zm-5 0h-2.7v12h2.7zm-5.1 0h-2.7v12h2.7zm-5.1 0h-2.6v12h2.6zm-5 0h-2.7v12h2.7z" fill="#4f4788"/><path d="M219.2 267.2H215v12h4.1zm7.7 0h-4.1v12h4zm7.7 0h-4.1v12h4zm7.7 0h-4.1v12h4.1zm7.7 0h-4.1v12h4.1zm7.8 0h-4.2v12h4.1zm7.7 0h-4.1v12h4zm7.7 0H269v12h4z" fill="#cdfdf9"/><path d="M320.7 267.2H318v12h2.7zm-5 0H313v12h2.7zm-5.1 0H308v12h2.7zm-5 0h-2.7v12h2.7zm-5.1 0h-2.7v12h2.7zm-5.1 0h-2.6v12h2.6zm-5 0h-2.7v12h2.7z" fill="#4f4788"/><path d="M219.2 282.2H215v12h4.1zm7.7 0h-4.1v12h4zm7.7 0h-4.1v12h4zm7.7 0h-4.1v12h4.1zm7.7 0h-4.1v12h4.1zm7.8 0h-4.2v12h4.1zm7.7 0h-4.1v12h4zm7.7 0H269v12h4z" fill="#cdfdf9"/><path d="M320.7 282.2H318v12h2.7zm-5 0H313v12h2.7zm-5.1 0H308v12h2.7zm-5 0h-2.7v12h2.7zm-5.1 0h-2.7v12h2.7zm-5.1 0h-2.6v12h2.6zm-5 0h-2.7v12h2.7z" fill="#4f4788"/><path d="M219.2 297.2H215V309h4.1zm7.7 0h-4.1V309h4zm7.7 0h-4.1V309h4zm7.7 0h-4.1V309h4.1zm7.7 0h-4.1V309h4.1zm7.8 0h-4.2V309h4.1zm7.7 0h-4.1V309h4zm7.7 0H269V309h4z" fill="#cdfdf9"/><path d="M320.7 297.2H318V309h2.7zm-5 0H313V309h2.7zm-5.1 0H308V309h2.7zm-5 0h-2.7V309h2.7zm-5.1 0h-2.7V309h2.7zm-5.1 0h-2.6V309h2.6zm-5 0h-2.7V309h2.7z" fill="#4f4788"/><path d="M234.6 166h-4.1v18.6h4zm7.7 0h-4.1v18.6h4.1zm7.7 0h-4.1v18.6h4.1zm7.8 0h-4.2v18.6h4.1zm7.7 0h-4.1v18.6h4zm7.7 0H269v18.6h4z" fill="#cdfdf9"/><path d="M310.6 166H308v18.6h2.7zm-5 0h-2.7v18.6h2.7zm-5.1 0h-2.7v18.6h2.7zm-5.1 0h-2.6v18.6h2.6zm-5 0h-2.7v18.6h2.7z" fill="#4f4788"/><path d="M479.5 120.4h-45.8v194.2h45.8z" fill="url(#x)"/><path d="M506.2 120.4h-26.7v194.2h26.7z" fill="url(#y)"/><path d="M479.5 126.7h-45.8v3.6h45.8z" fill="#4f4788"/><path d="M502.3 126.7h-22.8v3.6h22.8z" fill="#3e5c9e"/><path d="M479.5 135.7h-45.8v3.6h45.8z" fill="#4f4788"/><path d="M502.3 135.7h-22.8v3.6h22.8z" fill="#3e5c9e"/><path d="M479.5 144.7h-45.8v3.6h45.8z" fill="#4f4788"/><path d="M502.3 144.7h-22.8v3.6h22.8z" fill="#3e5c9e"/><path d="M479.5 158.7h-45.8v3.6h45.8z" fill="#4f4788"/><path d="M502.3 158.7h-22.8v3.6h22.8z" fill="#3e5c9e"/><path d="M479.5 167.6h-45.8v3.6h45.8z" fill="#4f4788"/><path d="M502.3 167.6h-22.8v3.6h22.8z" fill="#3e5c9e"/><path d="M479.5 176.6h-45.8v3.6h45.8z" fill="#4f4788"/><path d="M502.3 176.6h-22.8v3.6h22.8z" fill="#3e5c9e"/><path d="M479.5 190.6h-45.8v3.6h45.8z" fill="#4f4788"/><path d="M502.3 190.6h-22.8v3.6h22.8z" fill="#3e5c9e"/><path d="M479.5 199.6h-45.8v3.6h45.8z" fill="#4f4788"/><path d="M502.3 199.6h-22.8v3.6h22.8z" fill="#3e5c9e"/><path d="M479.5 208.6h-45.8v3.6h45.8z" fill="#4f4788"/><path d="M502.3 208.6h-22.8v3.6h22.8z" fill="#3e5c9e"/><path d="M479.5 222.6h-45.8v3.6h45.8z" fill="#4f4788"/><path d="M502.3 222.6h-22.8v3.6h22.8z" fill="#3e5c9e"/><path d="M479.5 231.6h-45.8v3.6h45.8z" fill="#4f4788"/><path d="M502.3 231.6h-22.8v3.6h22.8z" fill="#3e5c9e"/><path d="M479.5 240.6h-45.8v3.6h45.8z" fill="#4f4788"/><path d="M502.3 240.6h-22.8v3.6h22.8z" fill="#3e5c9e"/><path d="M479.5 254.5h-45.8v3.6h45.8z" fill="#4f4788"/><path d="M502.3 254.5h-22.8v3.6h22.8z" fill="#3e5c9e"/><path d="M479.5 263.6h-45.8v3.5h45.8z" fill="#4f4788"/><path d="M502.3 263.6h-22.8v3.5h22.8z" fill="#3e5c9e"/><path d="M479.5 272.5h-45.8v3.6h45.8z" fill="#4f4788"/><path d="M502.3 272.5h-22.8v3.6h22.8z" fill="#3e5c9e"/><path d="M479.5 286.5h-45.8v3.6h45.8z" fill="#4f4788"/><path d="M502.3 286.5h-22.8v3.6h22.8z" fill="#3e5c9e"/><path d="M479.5 295.5h-45.8v3.6h45.8z" fill="#4f4788"/><path d="M502.3 295.5h-22.8v3.6h22.8z" fill="#3e5c9e"/><path d="M479.5 304.5h-45.8v3.6h45.8z" fill="#4f4788"/><path d="M502.3 304.5h-22.8v3.6h22.8z" fill="#3e5c9e"/><path d="M481.8 112.4h-24.6v8h24.6z" fill="#64c7d5"/><path d="M496.2 112.4h-14.4v8h14.4z" fill="url(#z)"/><path d="M432 180.5h-37v134.1h37z" fill="url(#A)"/><path d="M453.6 180.5H432v134.1h21.6z" fill="url(#B)"/><path d="M477.9 251.2H347v63.4h130.8z" fill="#cdfdf9"/><path d="M536.8 251.2H478v63.4h59z" fill="url(#C)"/><path d="M478 270.4h-13.8v5.1h13.7z" fill="#676199"/><path d="M488.9 270.4h-11v5.1h11zm31.3 0H496v5.1h24z" fill="#3e5c9e"/><path d="M443.7 270.4h-52v5.1h52zm34.1 12.2h-48.7v5.1h48.7z" fill="#676199"/><path d="M502 282.6h-24.1v5.1H502zm18.3 0h-11v5.1h11z" fill="#3e5c9e"/><path d="M478 293.8h-13.8v5.1h13.7z" fill="#676199"/><path d="M488.9 293.8h-11v5.1h11zm31.3 0H496v5.1h24z" fill="#3e5c9e"/><path d="M443.7 293.8h-52v5.1h52zm34.1 12.2h-48.7v5h48.7zm-101.9-35.6H347v5.1h28.9zm34.1 12.2h-48.7v5.1H410zm-34.1 11.2H347v5.1h28.9zM410 306h-48.7v5H410z" fill="#676199"/><path d="M502 306h-24.1v5H502zm18.3 0h-11v5h11z" fill="#3e5c9e"/><path d="M406.9 237.3H364v13.9h42.8z" fill="#64c7d5"/><path d="M432 237.3h-25v13.9h25z" fill="url(#D)"/><path d="M390.7 230h-7.5v7.3h7.5z" fill="#64c7d5"/><path d="M395.2 230h-4.5v7.3h4.5z" fill="url(#E)"/><path d="M245 266h-74.3v48.5H245z" fill="#cdfdf9"/><path d="M304 266h-59v48.5h58.9z" fill="url(#F)"/><path d="M187.2 271h-5v11.9h5zm7.8 0h-5v11.9h5zm7.6 0h-5v11.9h5zm7.8 0h-5v11.9h5zm7.6 0h-5v11.9h5zm7.8 0h-5v11.9h5zm7.7 0h-5v11.9h5zm7.7 0h-5v11.9h5z" fill="#676199"/><path d="M299.5 271h-3.2v11.9h3.2zm-5 0h-3.3v11.9h3.3zm-36.3 0H255v11.9h3.2zm-5 0H250v11.9h3.2z" fill="#3e5c9e"/><path d="M187.2 286h-5v11.9h5zm7.8 0h-5v11.9h5zm7.6 0h-5v11.9h5zm7.8 0h-5v11.9h5zm7.6 0h-5v11.9h5zm7.8 0h-5v11.9h5zm7.7 0h-5v11.9h5zm7.7 0h-5v11.9h5z" fill="#676199"/><path d="M299.5 286h-3.2v11.9h3.2zm-5 0h-3.3v11.9h3.3zm-36.3 0H255v11.9h3.2zm-5 0H250v11.9h3.2z" fill="#3e5c9e"/><path d="M187.2 300.8h-5v12h5zm-7.7-29.8h-5v11.9h5zm0 15h-5v11.9h5zm0 14.8h-5v12h5zm15.5 0h-5v12h5zm7.6 0h-5v12h5zm7.8 0h-5v12h5zm7.6 0h-5v12h5zm7.8 0h-5v12h5zm7.7 0h-5v12h5zm7.7 0h-5v12h5z" fill="#676199"/><path d="M299.5 300.8h-3.2v12h3.2zm-5 0h-3.3v12h3.3zM279.4 271h-3.2v11.9h3.2zm-5 0H271v11.9h3.3zm5 15h-3.2v11.9h3.2zm-5 0H271v11.9h3.3zm5 14.8h-3.2v12h3.2zm-5 0H271v12h3.3zm-16.2 0H255v12h3.2zm-5 0H250v12h3.2z" fill="#3e5c9e"/><path d="M737.3 228h-61.2v86.6h61.2z" fill="url(#G)"/><path d="M761.9 228h-24.6v86.6H762z" fill="url(#H)"/><path d="M733.4 236h-57v5h57z" fill="#4f4788"/><path d="M761.9 236h-28.5v5h28.5z" fill="#3e5c9e"/><path d="M733.4 248.3h-57v4.9h57z" fill="#4f4788"/><path d="M761.9 248.3h-28.5v4.9h28.5z" fill="#3e5c9e"/><path d="M733.4 260.4h-57v4.9h57z" fill="#4f4788"/><path d="M761.9 260.4h-28.5v4.9h28.5z" fill="#3e5c9e"/><path d="M733.4 279.3h-57v5h57z" fill="#4f4788"/><path d="M761.9 279.3h-28.5v5h28.5z" fill="#3e5c9e"/><path d="M733.4 291.5h-57v5h57z" fill="#4f4788"/><path d="M761.9 291.5h-28.5v5h28.5z" fill="#3e5c9e"/><path d="M733.4 303.6h-57v5h57z" fill="#4f4788"/><path d="M761.9 303.6h-28.5v5h28.5z" fill="#3e5c9e"/><path d="M566.3 162.6H494v152h72.4z" fill="#64c7d5"/><path d="M608.7 162.6h-42.4v152h42.4z" fill="url(#I)"/><path d="M561.4 146.9h-48.5v15.7h48.5z" fill="#64c7d5"/><path d="M589.7 146.9h-28.3v15.7h28.3z" fill="url(#J)"/><path d="M543 138.5h-8.5v8.4h8.5z" fill="#64c7d5"/><path d="M548 138.5h-5v8.4h5z" fill="url(#K)"/><path d="M576.2 138.5h-8.6v8.4h8.6z" fill="#64c7d5"/><path d="M581 138.5h-5v8.4h5z" fill="url(#L)"/><path d="M501.1 169h-3.3v12h3.3zm4.7 0h-3.4v12h3.4zm9 0h-3.3v12h3.3zm4.8 0h-3.4v12h3.4zm8.9 0h-3.3v12h3.3zm4.8 0h-3.4v12h3.4zm-32.2 18h-3.3v11.9h3.3zm4.7 0h-3.4v11.9h3.4zm9 0h-3.3v11.9h3.3zm4.8 0h-3.4v11.9h3.4zm8.9 0h-3.3v11.9h3.3zm4.8 0h-3.4v11.9h3.4zm-32.2 17.8h-3.3v12h3.3zm4.7 0h-3.4v12h3.4zm9 0h-3.3v12h3.3zm4.8 0h-3.4v12h3.4zm8.9 0h-3.3v12h3.3zm4.8 0h-3.4v12h3.4zm-32.2 18h-3.3v12h3.3zm4.7 0h-3.4v12h3.4zm9 0h-3.3v12h3.3zm4.8 0h-3.4v12h3.4zm8.9 0h-3.3v12h3.3zm4.8 0h-3.4v12h3.4zm-32.2 17.9h-3.3v12h3.3zm4.7 0h-3.4v12h3.4zm9 0h-3.3v12h3.3zm4.8 0h-3.4v12h3.4zm8.9 0h-3.3v12h3.3zm4.8 0h-3.4v12h3.4zm-32.2 17.9h-3.3v12h3.3zm4.7 0h-3.4v12h3.4zm9 0h-3.3v12h3.3zm4.8 0h-3.4v12h3.4zm8.9 0h-3.3v12h3.3zm4.8 0h-3.4v12h3.4zm9.1-89.6h-3.3v12h3.3zm4.7 0h-3.3v12h3.4zm9 0h-3.4v12h3.4zm4.8 0h-3.4v12h3.4zm-18.5 18h-3.3v11.9h3.3zm4.7 0h-3.3v11.9h3.4zm9 0h-3.4v11.9h3.4zm4.8 0h-3.4v11.9h3.4zm-18.5 17.8h-3.3v12h3.3zm4.7 0h-3.3v12h3.4zm9 0h-3.4v12h3.4zm4.8 0h-3.4v12h3.4zm-18.5 18h-3.3v12h3.3zm4.7 0h-3.3v12h3.4zm9 0h-3.4v12h3.4zm4.8 0h-3.4v12h3.4zm-18.5 17.9h-3.3v12h3.3zm4.7 0h-3.3v12h3.4zm9 0h-3.4v12h3.4zm4.8 0h-3.4v12h3.4zm-18.5 17.9h-3.3v12h3.3zm4.7 0h-3.3v12h3.4zm9 0h-3.4v12h3.4zm4.8 0h-3.4v12h3.4zM501.1 277h-3.3v11.8h3.3zm4.7 0h-3.4v11.8h3.4zm9 0h-3.3v11.8h3.3zm4.8 0h-3.4v11.8h3.4zm8.9 0h-3.3v11.8h3.3zm4.8 0h-3.4v11.8h3.4zm9.1 0h-3.3v11.8h3.3zm4.7 0h-3.3v11.8h3.4zm9 0h-3.4v11.8h3.4zm4.8 0h-3.4v11.8h3.4zm-59.8 18.2h-3.3v19.4h3.3zm4.7 0h-3.4v19.4h3.4zm9 0h-3.3v19.4h3.3zm4.8 0h-3.4v19.4h3.4zm8.9 0h-3.3v19.4h3.3zm4.8 0h-3.4v19.4h3.4zm9.1 0h-3.3v19.4h3.3zm4.7 0h-3.3v19.4h3.4zm9 0h-3.4v19.4h3.4zm4.8 0h-3.4v19.4h3.4z" fill="#cdfdf9"/><path d="M573 169h-2.3v12h2.2zm3.1 0h-2.2v12h2.2zm5.9 0h-2v12h2.2zm3.2 0H583v12h2.2zM573 187h-2.3v11.9h2.2zm3.1 0h-2.2v11.9h2.2zm5.9 0h-2v11.9h2.2zm3.2 0H583v11.9h2.2zM573 204.8h-2.3v12h2.2zm3.1 0h-2.2v12h2.2zm5.9 0h-2v12h2.2zm3.2 0H583v12h2.2zm-12.2 18h-2.3v12h2.2zm3.1 0h-2.2v12h2.2zm5.9 0h-2v12h2.2zm3.2 0H583v12h2.2zM573 240.7h-2.3v12h2.2zm3.1 0h-2.2v12h2.2zm5.9 0h-2v12h2.2zm3.2 0H583v12h2.2zM573 258.6h-2.3v12h2.2zm3.1 0h-2.2v12h2.2zm5.9 0h-2v12h2.2zm3.2 0H583v12h2.2zM573 277h-2.3v11.8h2.2zm3.1 0h-2.2v11.8h2.2zm5.9 0h-2v11.8h2.2zm3.2 0H583v11.8h2.2zM573 295.2h-2.3v19.4h2.2zm3.1 0h-2.2v19.4h2.2zm5.9 0h-2v19.4h2.2zm3.2 0H583v19.4h2.2zm6.2-126.2h-2.2v12h2.2zm3.1 0h-2.2v12h2.2zm6 0h-2.2v12h2.2zm3.2 0h-2.2v12h2.2zm-12.3 18h-2.2v11.9h2.2zm3.1 0h-2.2v11.9h2.2zm6 0h-2.2v11.9h2.2zm3.2 0h-2.2v11.9h2.2zm-12.3 17.8h-2.2v12h2.2zm3.1 0h-2.2v12h2.2zm6 0h-2.2v12h2.2zm3.2 0h-2.2v12h2.2zm-12.3 18h-2.2v12h2.2zm3.1 0h-2.2v12h2.2zm6 0h-2.2v12h2.2zm3.2 0h-2.2v12h2.2zm-12.3 17.9h-2.2v12h2.2zm3.1 0h-2.2v12h2.2zm6 0h-2.2v12h2.2zm3.2 0h-2.2v12h2.2zm-12.3 17.9h-2.2v12h2.2zm3.1 0h-2.2v12h2.2zm6 0h-2.2v12h2.2zm3.2 0h-2.2v12h2.2zM591.4 277h-2.2v11.8h2.2zm3.1 0h-2.2v11.8h2.2zm6 0h-2.2v11.8h2.2zm3.2 0h-2.2v11.8h2.2zm-12.3 18.2h-2.2v19.4h2.2zm3.1 0h-2.2v19.4h2.2zm6 0h-2.2v19.4h2.2zm3.2 0h-2.2v19.4h2.2z" fill="#4f4788"/><path d="M76 315.9c3.7-7.2 22.2-21.5 45.6-17.7 25.5 4.2 31.2-5 41.7-8.8 19.3-7 34.2 16 40.9 1.5 8.5-18.7 22.3-28 64.5-9.6 10 4.4 9.3-5.3 13.9-11 8.8-10.9 19.5 9.4 24.5 8.2 5.6-1.2 3.9-9.8 7.1-17.2 6.8-15.4 18.6-1 26.7-2.2s12.4-18.2 21.6-14.8c19.4 7.3 13.3 50.2 12.1 59.8 5.6-8.2 15.4-14.1 15.4 11.7H76z" fill="url(#d)"/><path d="M154.5 315.9h100.7c5.2-20.6-15.4-10.3-15.4-10.3s7.8-21.6-.2-19.4c-7.6 2.1-11 19-11 19s-4-27.6-13.1-29.3c-5.9-1.2-1.3 26.1-1.3 26.1a15.1 15.1 0 00-8.4-3c-4.2 0-3.2 5.3-3.2 5.3s-8.8-17.8-13.3-17.5c-5.7.3.4 18.9.4 18.9s-11.2-12.1-15.7-11.8c-6.1.4 4.6 17.8 4.6 17.8a33.3 33.3 0 00-17.8-4c-7 .5-9.8 3.3-6.3 8.2z" fill="url(#j)"/><path d="M581.4 204c0 42.3-16.8 76.9-28.6 76.9s-27.1-46.2-27.1-88.5 18.8-69.6 32.4-64.7c15.4 5.4 23.3 34 23.3 76.3z" fill="url(#M)"/><path d="M391.8 315.9h-90.4v-90.4l41.6-50.8 48.7 50.8z" fill="url(#f)"/><path d="M391.7 315.8h106.6v-90.2H391.7z" fill="#f7ce8f"/><path d="M343 174.7l-41.7 50.8s35.2-19.3 53.8-13.6c11 3.3 18.5 2.3 23.8-.5z" fill="url(#g)" opacity=".5"/><path d="M512.5 242H408.8v74h103.7z" fill="url(#N)"/><path d="M512.5 315.9H619V242H512.4z" fill="url(#O)"/><path d="M498.3 258.7H423v57.1h75.3z" fill="url(#e)"/><path d="M344 174.7h104.7a11.3 11.3 0 018.4 3.7l43.3 44.8a1.4 1.4 0 01-1 2.3H392.8z" fill="url(#P)"/><path d="M423 315.8h4.4v-57H423z" fill="#f7ce8f"/><path d="M498.3 258.7h-70.9v1.2h71zm0 4.7h-70.9v1.2h71zm0 4.6h-70.9v1.3h71zm0 4.7h-70.9v1.2h71zm0 4.7h-70.9v1.2h71zm0 4.6h-70.9v1.3h71zm0 4.6h-70.9v1.3h71zm0 4.7h-70.9v1.2h71zm0 4.7h-70.9v1.3h71zm0 4.6h-70.9v1.3h71zm0 4.7h-70.9v1.2h71zm0 4.7h-70.9v1.2h71zm0 4.6h-70.9v1.3h71z" fill="#fff"/><path d="M339.5 242h-19v57.2h19z" fill="#228ab2"/><path d="M320.5 299.2h4.4V242h-4.4z" fill="#f7ce8f"/><path d="M353.7 315.8h19V242h-19z" fill="#228ab2"/><path d="M353.7 315.8h4.4V242h-4.4zM429 194.1h30.7a1.4 1.4 0 011.4 1.4v30H429v-31.4z" fill="#f7ce8f"/><path d="M454.5 206h-19v19.5h19z" fill="#228ab2"/><path d="M454.5 206h-4.4v19.5h4.4z" fill="#fff"/><path d="M429 194.1h-29.4l29.4 31.4z" fill="url(#Q)"/><path d="M339.5 251.4h-10.3v47.8h10.3zm33.2 0h-10.4V316h10.4z" fill="#36a9e1"/><path d="M372.6 258.7H358v2.5h14.6zm-33.1 0h-14.7v2.5h14.7z" fill="#fff"/><path d="M346 176.4l-2.2-.3-44.9 49.4h2.5z" fill="#b58b4e"/><path d="M345 174.7h-2.1l-44.6 48.9.6 1.9z" fill="#fff"/><path d="M450 215.4h-10.3v10.1h10.4z" fill="#36a9e1"/><path d="M343 174.7h2l48.7 50.8h-2.5z" fill="#fff"/><path d="M427.4 258.7v33s12.5 0 26.8-9.5 17.3-23.4 25-23.4l-51.8-.1z" fill="url(#R)" opacity=".5"/><path d="M427.4 288.8l-4.4-4v-26h4.4z" fill="url(#h)" opacity=".5"/><path d="M408.7 240.7h-17v75.1h17z" fill="url(#S)" opacity=".5"/><path d="M498.3 225.5H391.8V253h106.5z" fill="url(#T)" opacity=".5"/><path d="M422.2 227h-30.4v88.8h30.4z" fill="url(#i)" opacity=".5"/><path d="M530.5 242h-18v74h18z" fill="url(#U)" opacity=".5"/><path d="M640.8 326.7H563c.4-23.8 6.7-8.5 6.7-8.5s2-17.4 6.6-18.1c4.3-.7 6.3 17 6.3 17s4.7-25.2 10.8-26.2c5.4-.9 1.2 23.5 1.2 23.5a14.6 14.6 0 017.7-2.7c5.2-.2 3 4.7 3 4.7s6.4-11 10.6-10.7c5.2.2 1.6 11.4 1.6 11.4s3.9-3.7 7.9-4.2c7.9-1-.5 9-.5 9a71.4 71.4 0 0115.2-3.7c9.6-1.5 7.6 3.8.7 8.5z" fill="url(#V)"/><path d="M733.7 361.9c28 0 50.8-2.8 50.8-6.1s-22.7-6.1-50.8-6.1c-23.7 0-43.7 2-49.2 4.6h-64.4v2.7h64c4.8 2.8 25.2 4.9 49.6 4.9z" fill="url(#k)" fill-rule="evenodd"/><path d="M681.5 214.1a21.8 21.8 0 00-15.1-9.5c-11.6-1.7-7.6-14.5-17.7-17.9-10.6-3.6-11.5 5-38.6-10.4-7.5-4.3-21.6-5.7-27.9 2.5a22.8 22.8 0 00-3.4 17.5c1 5.6 5.2 13.6.6 18.6-4.3 4.8-11.8 3.2-17 6.3s-7.5 9.2-7.5 15a62.1 62.1 0 0014.3 38.8c18 21.6 50.5 26.8 76.2 17.5a60.7 60.7 0 0034-31.3c6.6-13.8 10.7-33.2 2-47z" fill="url(#W)"/><path d="M641.2 185.8c-5.7.2-11.7 1.5-31-9.5-7.6-4.3-21.7-5.6-28 2.5a22.8 22.8 0 00-3.4 17.5c1 5.5 5.2 13.6.6 18.6-4.3 4.7-11.8 3.2-17 6.3s-7.5 9.2-7.5 15a62.1 62.1 0 0016.9 41.6c32.6 17.7 9-36.3 19.8-46 7-6.3 20.4 2.5 26.5-1.9 3-2.1 2.8-6.4.4-9.7-7.3-10.2-19-20.9-13.3-27 3.1-3.3 9.4-1.6 21-1.5 13.5 0 20.5-3.3 15-6z" fill="url(#X)"/><path d="M626.6 357H620l-.3-44-7.3-68.2 1.7-2.2 9.6 66.6 6.8-43.9 1.6 1.7-6.7 50z" fill="#2e3e5c"/><path d="M644 261.7l-15.5 23v-1.9l14.6-22zm-27.1 17.9l-13.3-18 .7-.8 12.8 16.6zm3.2-38.3l-3.9 21.7-.9-2.2 4-19.7z" fill="#2e3e5c"/><path d="M351 335.8c26.6 0 48.3-2.5 48.3-5.5s-21.6-5.6-48.4-5.6c-21.6 0-39.9 1.6-46 3.9h-62.2v2.6h60.6c3.8 2.6 23.7 4.6 47.6 4.6z" fill="url(#Y)" fill-rule="evenodd"/><path d="M281.4 219.3c.2-12-10.4-15.6-20.7-12.3-7.7 2.5-8.4 3.6-28-7.6-5.6-3.2-15.8-4.1-20.4 1.8a16.8 16.8 0 00-2.7 12.7c.8 4 3.8 10 .4 13.6-3.1 3.5-8.6 2.4-12.5 4.6s-5.4 6.8-5.5 11a42 42 0 0010.3 28.2c13.4 14.6 37.1 20.2 59 14.6 48.3-12.3 30.1-38.2 24.5-45-6.1-7.4-4.5-13.4-4.4-21.6z" fill="url(#Z)"/><path d="M261.4 206.8l-.6.2c-7.8 2.5-8.4 3.6-28.1-7.6-5.5-3.2-15.8-4.1-20.4 1.8a16.8 16.8 0 00-2.6 12.7c.7 4 3.7 10 .4 13.6-3.2 3.5-8.7 2.4-12.5 4.6s-5.4 6.8-5.6 11a45 45 0 0013 31.1c21.5 13.1-1-15.2 17-26.9 8.7-5.8 25.7-11.9 18.3-21.1-5.4-6.7-9.5-9.4-7.8-13 .9-2 3.5-4 11.9-2.5 11.4 2 19.7-2 17-3.9z" fill="url(#aa)"/><path d="M242.7 331.2h5l-.5-32 1-52.4-1.3-1.6-2.6 51.1-7.2-31.4-1.2 1.3L243 302z" fill="#2e3e5c"/><path d="M255.4 254.1l-8.3 12.4v2.4l9.2-14zm-12.4-4.7l3.7 7.4v1.6l-4.2-8.7zm-11 19.7l6 5.5.6 1.4-7.1-6.5z" fill="#2e3e5c"/></svg>
