<svg viewBox="0 0 64 64" xmlns="http://www.w3.org/2000/svg"><path d="M59 38a4 4 0 00-4-4h-.1a3.7 3.7 0 00.1-1 4 4 0 10-4 4h.1a3.7 3.7 0 00-.1 1 4 4 0 001.6 3.2 2.7 2.7 0 00-.4.8H52a2 2 0 00-1.3 3.5 2 2 0 102.6 0 3 3 0 001.7.5 3 3 0 002.4-4.8A4 4 0 0059 38zM39 31a4 4 0 00-3.9 3H35a4 4 0 00-2.4 7.2 2.7 2.7 0 00-.4.8H32a2 2 0 00-1.3 3.5 2 2 0 102.6 0 3 3 0 001.7.5 3 3 0 002.4-4.8 4 4 0 001.5-2.2h.1a4 4 0 000-8zM22 32.4a5.5 5.5 0 00-11 .1 5.4 5.4 0 00.9 3A4 4 0 0011 38a4 4 0 001.6 3.2 2.7 2.7 0 00-.4.8H12a2 2 0 00-1.3 3.5 2 2 0 102.6 0 3 3 0 001.7.5 3 3 0 002.4-4.8 4 4 0 001.5-2.2h.1a4 4 0 003-6.6z" fill="#a8dba8"/><path d="M54 26h-.3a7 7 0 01-10 1.5 16 16 0 01-17.3 0 12.2 12.2 0 01-3.4.5 12 12 0 01-9-4 5 5 0 01-3 1 5 5 0 01-5-4.6A5 5 0 008 30a5 5 0 003-1 12 12 0 009 4 12.2 12.2 0 003.4-.5 16 16 0 0017.2 0A7 7 0 0050.8 31h.2a10 10 0 009.7-7.6A9.9 9.9 0 0154 26z" fill="#cff09e"/><path d="M56 49h-8l-1 12h10zM36 49h-8l-1 12h10zM16 49H8L7 61h10z" fill="#79bd9a"/><g fill="#3b8686"><path d="M21 15a3 3 0 013 3 1 1 0 002 0 5 5 0 00-10 0v4a5 5 0 0010 0 1 1 0 00-2 0 3 3 0 01-6 0v-4a3 3 0 013-3zM43 26a3 3 0 10-3-3 1 1 0 002 0 1 1 0 111 1 3 3 0 00-3 3v1a1 1 0 001 1h4a1 1 0 000-2h-3a1 1 0 011-1zM33 13a5 5 0 00-5 5v4a5 5 0 0010 0v-4a5 5 0 00-5-5zm3 9a3 3 0 01-6 0v-4a3 3 0 016 0z"/><path d="M56 33.1V33a4.8 4.8 0 00-.4-2A11 11 0 0051 10a10.7 10.7 0 00-2 .2A7 7 0 0045 8a17 17 0 00-26 0A13 13 0 007.3 19 6 6 0 008 31a5.8 5.8 0 002.3-.5 6.4 6.4 0 00-.3 2 6.5 6.5 0 00.7 3A4.8 4.8 0 0010 38a5 5 0 001.1 3.1A3 3 0 009 44a3 3 0 00.4 1.5A3 3 0 009 47a3 3 0 00.2 1H8a1 1 0 00-1 1l-.3 4H6a1 1 0 000 2h.5L6 61a1 1 0 102 0l.5-6h7l.5 6a1 1 0 001 1 1 1 0 001-1l-.5-6h.5a1 1 0 000-2h-.7l-.3-4a1 1 0 00-1-1h-1.2a3 3 0 00.2-1 4 4 0 004-4 4 4 0 00-.3-1.6 5 5 0 00.9-1.4 5 5 0 004.4-5 5.1 5.1 0 00-.1-1.1 17 17 0 006.6 2 5 5 0 00.6 5.2A3 3 0 0029 44a3 3 0 00.4 1.5A3 3 0 0029 47a3 3 0 00.2 1H28a1 1 0 00-1 1l-.3 4H26a1 1 0 000 2h.5l-.5 6a1 1 0 102 0l.5-6h7l.5 6a1 1 0 001 1 1 1 0 001-1l-.5-6h.5a1 1 0 000-2h-.7l-.3-4a1 1 0 00-1-1h-1.2a3 3 0 00.2-1 4 4 0 004-4 4 4 0 00-.3-1.6 5 5 0 00.9-1.4 5 5 0 004.4-5 6.9 6.9 0 001 0 7.9 7.9 0 001.4-.1 5 5 0 003.6 3v.1a5 5 0 001.1 3.1A3 3 0 0049 44a3 3 0 00.4 1.5A3 3 0 0049 47a3 3 0 00.2 1H48a1 1 0 00-1 1l-.3 4H46a1 1 0 000 2h.5l-.5 6a1 1 0 102 0l.5-6h7l.5 6a1 1 0 001 1 1 1 0 001-1l-.5-6h.5a1 1 0 000-2h-.7l-.3-4a1 1 0 00-1-1h-1.2a3 3 0 00.2-1 4 4 0 004-4 4 4 0 00-.3-1.6A5 5 0 0060 38a5 5 0 00-4-4.9zM15.3 53H8.7l.2-3h6.2zm3.8-15h-.2a1 1 0 00-1 .8 3 3 0 01-1.1 1.6 1 1 0 00-.4.7 1 1 0 00.2.7A2 2 0 0117 43a2 2 0 01-3.1 1.7 1 1 0 00-1.2 0 1 1 0 00-.4.8 1 1 0 00.3.7 1 1 0 11-1.3 0 1 1 0 000-1.5A1 1 0 0112 43h.1a1 1 0 001-.7 2 2 0 01.3-.5 1 1 0 00.2-.7 1 1 0 00-.4-.7A3 3 0 0112 38a3 3 0 01.7-1.9 1 1 0 000-1.1 4.5 4.5 0 01-.7-2.5 4.1 4.1 0 01.2-1.2 12.7 12.7 0 009.6 2.6A3 3 0 0122 35a3 3 0 01-3 3zm16.2 15h-6.6l.2-3h6.2zM42 35a3 3 0 01-3 3H39a1 1 0 00-1 .8 3 3 0 01-1.1 1.6 1 1 0 00-.4.7 1 1 0 00.2.7A2 2 0 0137 43a2 2 0 01-3.1 1.7 1 1 0 00-1.2 0 1 1 0 00-.4.8 1 1 0 00.4.7 1 1 0 11-1.3 0 1 1 0 000-1.5A1 1 0 0132 43h.1a1 1 0 001-.7 2 2 0 01.3-.5 1 1 0 00.2-.7 1 1 0 00-.4-.7 3 3 0 01-.4-4.4 16.8 16.8 0 007.8-2.3 8.4 8.4 0 001.3.7 2.8 2.8 0 01.1.6zm-.8-3.3a1 1 0 00-1.1 0 14.9 14.9 0 01-16.1 0 1 1 0 00-.6-.2.9.9 0 00-.2 0 11.1 11.1 0 01-11.4-3.3 1 1 0 00-1.4-.1A4 4 0 018 29a4 4 0 010-8 1 1 0 001-1 11 11 0 0110.5-10 1 1 0 00.8-.4 15 15 0 0123.4 0 1 1 0 00.7.4 5 5 0 013.5 1.9 1 1 0 001 .3A8.8 8.8 0 0151 12a9 9 0 110 18h-.2a1 1 0 00-.9.4 6 6 0 01-8.6 1.3zM55.4 53h-6.6l.2-3h6.2zm1.5-12.6a1 1 0 00-.4.7 1 1 0 00.2.7A2 2 0 0157 43a2 2 0 01-3.1 1.7 1 1 0 00-1.2 0 1 1 0 00-.4.8 1 1 0 00.4.7 1 1 0 11-1.3 0 1 1 0 000-1.5A1 1 0 0152 43h.1a1 1 0 001-.7 2 2 0 01.3-.5 1 1 0 00.2-.7 1 1 0 00-.4-.7A3 3 0 0152 38a3.2 3.2 0 01.1-.8 1 1 0 00-.2-.8 1 1 0 00-.8-.4H51a3 3 0 01-2.7-1.7 7.9 7.9 0 003-2.3 10.7 10.7 0 002.4-.3A2.9 2.9 0 0154 33a3.2 3.2 0 01-.1.8 1 1 0 00.2.8 1 1 0 00.8.4h.1a3 3 0 013 3 3 3 0 01-1.2 2.4z"/></g></svg>
