<svg xmlns="http://www.w3.org/2000/svg" viewBox="0 0 400.2 400.2"><path d="M201.4 88.4c113.1-12.4 149.9-84 150-84A7.3 7.3 0 01364.9 6c37.6 127.5 17 215.4-26.1 267.6a162.4 162.4 0 01-62.4 46.5 155.4 155.4 0 01-70.8 12c-46.3-3.3-88.7-28-108.3-72.4a122.8 122.8 0 014.2-107.3 118.8 118.8 0 0157-52.5c13.7-6 28.1-9.8 42.9-11.4z" fill="#45b549"/><path d="M350.6 7.1A7.3 7.3 0 11365 8.3c0 .4-6.4 84-88 168.7l-.8.8a424.3 424.3 0 01-62.8 53l49 9.1a7.3 7.3 0 01-2.4 14.4l-64-12c-58.4 37-157.3 71-166 151.6a7.3 7.3 0 01-14.4-1.5C26 296 124 271.1 190.2 229l1-.6a420.4 420.4 0 0072.9-58.5l-5.8-57.4a7.3 7.3 0 1114.4-1.4l4.4 44.5c68-76.4 73.4-148 73.5-148.4z" fill="#009549"/></svg>
