<svg viewBox="0 0 31 31" xmlns="http://www.w3.org/2000/svg"><g fill="none" stroke="#000" stroke-linecap="round" stroke-linejoin="round" stroke-miterlimit="10"><path d="M17.9 18.3v4.6c0 2.8 2.1 4.8 4.8 4.7 2.5-.1 4.5-2.4 4.5-5.1V20c0-4.1-2.5-8.7-6-10.4-1.5-.7-3.3.3-3.3 2.1v1.7M15.2 3.6v12.7M25.1 21.6l-9.9-5.3M20.5 19l2.7-1.3M22.5 20.3V23M12.5 18.4v4.5c0 2.8-2.1 4.8-4.8 4.7-2.5-.1-4.5-2.4-4.5-5.1V20c0-4.1 2.5-8.7 6-10.4 1.5-.7 3.3.3 3.3 2.1v1.9M5.3 21.6l9.9-5.3M9.9 19l-2.7-1.3M7.9 20.3V23"/></g></svg>
