<svg viewBox="0 0 30 31" xmlns="http://www.w3.org/2000/svg"><path d="M12.6 12.3l-.7-2.1A2.1 2.1 0 0010 9c-.9 0-1.6.6-1.8 1.4l-1 3.4c-.2.5.1 1 .5 1.2l4.5 2.6c.2.1.2.2.2.4v.4l-.2.5h-.5l-3.9-2.1-1.3 6.5c-.1.3 0 .6.2.9.2.2.5.4.8.4h1.2l.2.2v1.8c0 .2.2.5.4.5s.5-.2.5-.5v-1.8c0-.6-.5-1-1-1H7.5l-.1-.1s-.1-.1 0-.2l.9-5.2 2.9 1.5c.4.2.9.2 1.3 0 .5-.2.8-.7.8-1.3V18c0-.5-.2-1-.7-1.2L8 14.2v-.1l1-3.4c.2-.5.6-.8 1-.8s.8.2 1 .7l.9 2.5.2.1c.1 0 5.3 1.8 4.9 5.3 0 0-.1 1.8-1.7 3l-.3.1.4 2.1H14a1 1 0 00-1 1v1.8c0 .2.2.5.5.5.2 0 .5-.2.5-.5v-1.8l.2-.2h1.7l.6-.2c.2-.2.2-.4.2-.6l-.5-1.7c1.8-1.4 1.8-3.3 1.8-3.4.3-4-4.4-6-5.4-6.3zM24.4 20.5c0-.1-.5-1-1.7-1.5.6-.5 1-1.2 1-2 0-1.4-1.1-2.5-2.5-2.5s-2.5 1.1-2.5 2.5c0 .9.5 1.7 1.1 2.1-1.1.5-1.5 1.4-1.6 1.5l-.1.1v4.1c0 .4.3.7.5 1l.2.3v.4c0 .2.2.5.4.5h.1c.2 0 .4-.2.5-.4v-.7l-.5-.7-.2-.3V21c.2-.2.8-1.2 2.1-1.2 1.4 0 1.9.9 2.1 1.2v3.9l-.2.3-.5.7v.7c0 .2.2.4.5.4h.1c.2 0 .4-.2.4-.5v-.4l.2-.3c.2-.2.5-.6.5-1v-4.1zm-3.1-5.1c.9 0 1.5.7 1.5 1.5 0 .9-.7 1.5-1.5 1.5-.9 0-1.5-.7-1.5-1.5s.7-1.5 1.5-1.5z"/><path d="M8.6 5.1c.2-.7.9-1.1 1.6-1.1 1 0 1.7.7 1.7 1.7s-.8 1.6-1.7 1.6c-.2 0-.5.2-.5.5s.2.5.5.5c1.4 0 2.6-1.2 2.6-2.6S11.5 3 10.2 3C9.1 3 8 3.7 7.7 4.8l-.2.7L5 12.6c0 .2.2.5.5.5.2 0 .4-.2.5-.4l2.4-6.9c0-.4.2-.7.2-.7z"/></svg>
